<svg xmlns="http://www.w3.org/2000/svg" xmlns:xlink="http://www.w3.org/1999/xlink" width="500" zoomAndPan="magnify" viewBox="0 0 375 374.999991" height="500" preserveAspectRatio="xMidYMid meet" version="1.0"><defs><g/><clipPath id="a8c7dd19a4"><path d="M 239.066406 152.335938 L 258.867188 152.335938 L 258.867188 172.136719 L 239.066406 172.136719 Z M 239.066406 152.335938 " clip-rule="nonzero"/></clipPath><clipPath id="bd63d7992a"><path d="M 248.964844 152.335938 C 243.5 152.335938 239.066406 156.769531 239.066406 162.234375 C 239.066406 167.703125 243.5 172.136719 248.964844 172.136719 C 254.433594 172.136719 258.867188 167.703125 258.867188 162.234375 C 258.867188 156.769531 254.433594 152.335938 248.964844 152.335938 Z M 248.964844 152.335938 " clip-rule="nonzero"/></clipPath><clipPath id="b37d412b80"><path d="M 0.0664062 0.335938 L 19.867188 0.335938 L 19.867188 20.136719 L 0.0664062 20.136719 Z M 0.0664062 0.335938 " clip-rule="nonzero"/></clipPath><clipPath id="8d03fd83bf"><path d="M 9.964844 0.335938 C 4.5 0.335938 0.0664062 4.769531 0.0664062 10.234375 C 0.0664062 15.703125 4.5 20.136719 9.964844 20.136719 C 15.433594 20.136719 19.867188 15.703125 19.867188 10.234375 C 19.867188 4.769531 15.433594 0.335938 9.964844 0.335938 Z M 9.964844 0.335938 " clip-rule="nonzero"/></clipPath><clipPath id="81aabbbf84"><rect x="0" width="20" y="0" height="21"/></clipPath><clipPath id="8eeede1afc"><path d="M 302 178 L 317 178 L 317 193 L 302 193 Z M 302 178 " clip-rule="nonzero"/></clipPath><clipPath id="c6a878829d"><path d="M 299.558594 183.449219 L 311.226562 175.847656 L 318.824219 187.511719 L 307.160156 195.113281 Z M 299.558594 183.449219 " clip-rule="nonzero"/></clipPath><clipPath id="318fd44c17"><path d="M 305.390625 179.648438 C 302.171875 181.746094 301.261719 186.058594 303.359375 189.28125 C 305.457031 192.5 309.769531 193.410156 312.992188 191.3125 C 316.214844 189.214844 317.125 184.902344 315.023438 181.679688 C 312.925781 178.460938 308.613281 177.550781 305.390625 179.648438 Z M 305.390625 179.648438 " clip-rule="nonzero"/></clipPath><clipPath id="1e0f731594"><path d="M 0 0 L 15 0 L 15 15 L 0 15 Z M 0 0 " clip-rule="nonzero"/></clipPath><clipPath id="2cdc71850e"><path d="M -2.441406 5.449219 L 9.226562 -2.152344 L 16.824219 9.511719 L 5.160156 17.113281 Z M -2.441406 5.449219 " clip-rule="nonzero"/></clipPath><clipPath id="8312d7709b"><path d="M 3.390625 1.648438 C 0.171875 3.746094 -0.738281 8.058594 1.359375 11.28125 C 3.457031 14.5 7.769531 15.410156 10.992188 13.3125 C 14.214844 11.214844 15.125 6.902344 13.023438 3.679688 C 10.925781 0.460938 6.613281 -0.449219 3.390625 1.648438 Z M 3.390625 1.648438 " clip-rule="nonzero"/></clipPath><clipPath id="ac289f5529"><rect x="0" width="15" y="0" height="15"/></clipPath><clipPath id="9c53d91fef"><path d="M 158.011719 134.527344 L 194.488281 134.527344 L 194.488281 162.234375 L 158.011719 162.234375 Z M 158.011719 134.527344 " clip-rule="nonzero"/></clipPath><clipPath id="3dd977a175"><path d="M 176.199219 134.527344 C 166.15625 134.527344 158.011719 140.730469 158.011719 148.382812 C 158.011719 156.035156 166.15625 162.234375 176.199219 162.234375 C 186.246094 162.234375 194.386719 156.035156 194.386719 148.382812 C 194.386719 140.730469 186.246094 134.527344 176.199219 134.527344 Z M 176.199219 134.527344 " clip-rule="nonzero"/></clipPath><clipPath id="f5d8d0a577"><path d="M 0.0117188 0.527344 L 36.398438 0.527344 L 36.398438 28.234375 L 0.0117188 28.234375 Z M 0.0117188 0.527344 " clip-rule="nonzero"/></clipPath><clipPath id="675f163a7f"><path d="M 18.199219 0.527344 C 8.15625 0.527344 0.0117188 6.730469 0.0117188 14.382812 C 0.0117188 22.035156 8.15625 28.234375 18.199219 28.234375 C 28.246094 28.234375 36.386719 22.035156 36.386719 14.382812 C 36.386719 6.730469 28.246094 0.527344 18.199219 0.527344 Z M 18.199219 0.527344 " clip-rule="nonzero"/></clipPath><clipPath id="8519539a0b"><rect x="0" width="37" y="0" height="29"/></clipPath><clipPath id="fb22658bc8"><path d="M 226.171875 166.566406 L 244.921875 166.566406 L 244.921875 185.316406 L 226.171875 185.316406 Z M 226.171875 166.566406 " clip-rule="nonzero"/></clipPath><clipPath id="4e28b1d4f1"><path d="M 321.863281 223 L 332 223 L 332 233 L 321.863281 233 Z M 321.863281 223 " clip-rule="nonzero"/></clipPath><clipPath id="5e00d40184"><path d="M 328 235 L 339 235 L 339 245.589844 L 328 245.589844 Z M 328 235 " clip-rule="nonzero"/></clipPath><clipPath id="27e875b717"><rect x="0" width="151" y="0" height="17"/></clipPath><clipPath id="089a78f745"><path d="M 310 185 L 327 185 L 327 202 L 310 202 Z M 310 185 " clip-rule="nonzero"/></clipPath><clipPath id="e2d2a0df3f"><path d="M 307.933594 191.550781 L 321.125 182.957031 L 329.71875 196.148438 L 316.527344 204.742188 Z M 307.933594 191.550781 " clip-rule="nonzero"/></clipPath><clipPath id="ec0fe7d672"><path d="M 314.527344 187.253906 C 310.886719 189.625 309.855469 194.503906 312.230469 198.148438 C 314.605469 201.789062 319.480469 202.820312 323.125 200.445312 C 326.765625 198.070312 327.796875 193.195312 325.421875 189.550781 C 323.050781 185.910156 318.171875 184.878906 314.527344 187.253906 Z M 314.527344 187.253906 " clip-rule="nonzero"/></clipPath><clipPath id="3565d279f4"><path d="M 0 0 L 17 0 L 17 17 L 0 17 Z M 0 0 " clip-rule="nonzero"/></clipPath><clipPath id="d032486f9e"><path d="M -2.066406 6.550781 L 11.125 -2.042969 L 19.71875 11.148438 L 6.527344 19.742188 Z M -2.066406 6.550781 " clip-rule="nonzero"/></clipPath><clipPath id="d85b2c68e1"><path d="M 4.527344 2.253906 C 0.886719 4.625 -0.144531 9.503906 2.230469 13.148438 C 4.605469 16.789062 9.480469 17.820312 13.125 15.445312 C 16.765625 13.070312 17.796875 8.195312 15.421875 4.550781 C 13.050781 0.910156 8.171875 -0.121094 4.527344 2.253906 Z M 4.527344 2.253906 " clip-rule="nonzero"/></clipPath><clipPath id="959459c344"><rect x="0" width="17" y="0" height="17"/></clipPath><clipPath id="994b4ff0b8"><path d="M 316 199 L 321 199 L 321 204 L 316 204 Z M 316 199 " clip-rule="nonzero"/></clipPath><clipPath id="03e5b5c604"><path d="M 315.5 200.886719 L 319.355469 198.375 L 321.867188 202.230469 L 318.011719 204.742188 Z M 315.5 200.886719 " clip-rule="nonzero"/></clipPath><clipPath id="fde73a316c"><path d="M 317.425781 199.628906 C 316.363281 200.324219 316.0625 201.75 316.753906 202.816406 C 317.449219 203.878906 318.875 204.179688 319.9375 203.488281 C 321.003906 202.792969 321.304688 201.367188 320.609375 200.300781 C 319.917969 199.238281 318.492188 198.9375 317.425781 199.628906 Z M 317.425781 199.628906 " clip-rule="nonzero"/></clipPath><clipPath id="d5cba53eba"><path d="M 0 0 L 5 0 L 5 5 L 0 5 Z M 0 0 " clip-rule="nonzero"/></clipPath><clipPath id="997be40616"><path d="M -0.5 1.886719 L 3.355469 -0.625 L 5.867188 3.230469 L 2.011719 5.742188 Z M -0.5 1.886719 " clip-rule="nonzero"/></clipPath><clipPath id="22d1be0401"><path d="M 1.425781 0.628906 C 0.363281 1.324219 0.0625 2.75 0.753906 3.816406 C 1.449219 4.878906 2.875 5.179688 3.9375 4.488281 C 5.003906 3.792969 5.304688 2.367188 4.609375 1.300781 C 3.917969 0.238281 2.492188 -0.0625 1.425781 0.628906 Z M 1.425781 0.628906 " clip-rule="nonzero"/></clipPath><clipPath id="bc600ad5b7"><rect x="0" width="5" y="0" height="5"/></clipPath></defs><g fill="#1800ad" fill-opacity="1"><g transform="translate(52.680265, 222.529937)"><g><path d="M 3.828125 -25.53125 C 3.828125 -27.925781 3.75 -29.988281 3.59375 -31.71875 C 3.445312 -33.457031 3.253906 -34.945312 3.015625 -36.1875 C 2.773438 -37.425781 2.519531 -38.503906 2.25 -39.421875 C 1.988281 -40.347656 1.738281 -41.1875 1.5 -41.9375 C 1.257812 -42.6875 1.0625 -43.425781 0.90625 -44.15625 C 0.757812 -44.894531 0.6875 -45.710938 0.6875 -46.609375 C 0.6875 -47.429688 0.882812 -48.054688 1.28125 -48.484375 C 1.6875 -48.910156 2.179688 -49.207031 2.765625 -49.375 C 3.359375 -49.550781 3.941406 -49.644531 4.515625 -49.65625 C 5.085938 -49.675781 5.5625 -49.6875 5.9375 -49.6875 L 33.78125 -49.6875 C 34.789062 -49.6875 35.609375 -49.367188 36.234375 -48.734375 C 36.867188 -48.097656 37.1875 -47.273438 37.1875 -46.265625 L 37.1875 -36.390625 C 37.1875 -35.796875 37.148438 -35.1875 37.078125 -34.5625 C 37.015625 -33.945312 36.8125 -33.4375 36.46875 -33.03125 C 36.125 -32.632812 35.546875 -32.4375 34.734375 -32.4375 C 33.910156 -32.4375 33.101562 -32.691406 32.3125 -33.203125 C 31.519531 -33.722656 30.691406 -34.363281 29.828125 -35.125 C 28.960938 -35.882812 28.003906 -36.632812 26.953125 -37.375 C 25.910156 -38.125 24.738281 -38.753906 23.4375 -39.265625 C 22.144531 -39.785156 20.65625 -40.046875 18.96875 -40.046875 C 18.332031 -40.046875 17.867188 -39.84375 17.578125 -39.4375 C 17.285156 -39.039062 17.101562 -38.484375 17.03125 -37.765625 C 16.96875 -37.054688 16.9375 -36.234375 16.9375 -35.296875 C 16.9375 -34.023438 17.039062 -32.988281 17.25 -32.1875 C 17.457031 -31.382812 17.894531 -30.8125 18.5625 -30.46875 C 19.226562 -30.125 20.238281 -29.984375 21.59375 -30.046875 C 22.632812 -30.117188 23.523438 -30.226562 24.265625 -30.375 C 25.015625 -30.519531 25.710938 -30.660156 26.359375 -30.796875 C 27.003906 -30.941406 27.679688 -31.015625 28.390625 -31.015625 C 29.304688 -31.015625 29.945312 -30.710938 30.3125 -30.109375 C 30.6875 -29.515625 30.875 -28.882812 30.875 -28.21875 L 30.875 -21.28125 C 30.875 -20.644531 30.6875 -20.019531 30.3125 -19.40625 C 29.945312 -18.789062 29.304688 -18.484375 28.390625 -18.484375 C 27.679688 -18.484375 27.003906 -18.550781 26.359375 -18.6875 C 25.710938 -18.832031 25.015625 -18.984375 24.265625 -19.140625 C 23.523438 -19.304688 22.632812 -19.410156 21.59375 -19.453125 C 20.28125 -19.523438 19.289062 -19.394531 18.625 -19.0625 C 17.957031 -18.726562 17.507812 -18.179688 17.28125 -17.421875 C 17.050781 -16.660156 16.9375 -15.648438 16.9375 -14.390625 C 16.9375 -13.460938 16.96875 -12.632812 17.03125 -11.90625 C 17.101562 -11.1875 17.285156 -10.625 17.578125 -10.21875 C 17.867188 -9.820312 18.332031 -9.625 18.96875 -9.625 C 20.65625 -9.625 22.144531 -9.878906 23.4375 -10.390625 C 24.738281 -10.910156 25.910156 -11.550781 26.953125 -12.3125 C 28.003906 -13.070312 28.960938 -13.828125 29.828125 -14.578125 C 30.691406 -15.328125 31.519531 -15.957031 32.3125 -16.46875 C 33.101562 -16.988281 33.910156 -17.25 34.734375 -17.25 C 35.546875 -17.25 36.125 -17.046875 36.46875 -16.640625 C 36.8125 -16.242188 37.015625 -15.738281 37.078125 -15.125 C 37.148438 -14.519531 37.1875 -13.90625 37.1875 -13.28125 L 37.1875 -3.421875 C 37.1875 -2.398438 36.867188 -1.570312 36.234375 -0.9375 C 35.609375 -0.3125 34.789062 0 33.78125 0 L 5.375 0 C 5.007812 0 4.566406 -0.00390625 4.046875 -0.015625 C 3.535156 -0.0234375 3.019531 -0.113281 2.5 -0.28125 C 1.976562 -0.457031 1.546875 -0.757812 1.203125 -1.1875 C 0.859375 -1.613281 0.6875 -2.242188 0.6875 -3.078125 C 0.6875 -4.242188 0.789062 -5.316406 1 -6.296875 C 1.207031 -7.273438 1.46875 -8.296875 1.78125 -9.359375 C 2.09375 -10.429688 2.40625 -11.675781 2.71875 -13.09375 C 3.039062 -14.507812 3.304688 -16.21875 3.515625 -18.21875 C 3.722656 -20.21875 3.828125 -22.65625 3.828125 -25.53125 Z M 3.828125 -25.53125 "/></g></g></g><g fill="#1800ad" fill-opacity="1"><g transform="translate(90.906264, 222.529937)"><g><path d="M 2.203125 -30.671875 C 1.648438 -30.671875 1.203125 -30.84375 0.859375 -31.1875 C 0.515625 -31.53125 0.34375 -31.976562 0.34375 -32.53125 L 0.34375 -32.640625 C 0.34375 -33.191406 0.515625 -33.640625 0.859375 -33.984375 C 1.203125 -34.328125 1.648438 -34.5 2.203125 -34.5 L 3.9375 -34.5 L 3.9375 -38.328125 C 3.9375 -39.828125 4.191406 -41.28125 4.703125 -42.6875 C 5.222656 -44.101562 6 -45.375 7.03125 -46.5 C 8.070312 -47.632812 9.363281 -48.535156 10.90625 -49.203125 C 12.445312 -49.867188 14.238281 -50.203125 16.28125 -50.203125 C 17.726562 -50.203125 19.179688 -50.007812 20.640625 -49.625 C 22.109375 -49.25 23.453125 -48.707031 24.671875 -48 C 25.890625 -47.300781 26.863281 -46.453125 27.59375 -45.453125 C 28.332031 -44.453125 28.703125 -43.320312 28.703125 -42.0625 C 28.703125 -40.882812 28.367188 -39.84375 27.703125 -38.9375 C 27.035156 -38.03125 26.171875 -37.320312 25.109375 -36.8125 C 24.054688 -36.300781 22.941406 -36.046875 21.765625 -36.046875 C 21.117188 -36.046875 20.582031 -36.210938 20.15625 -36.546875 C 19.738281 -36.878906 19.394531 -37.289062 19.125 -37.78125 C 18.863281 -38.28125 18.640625 -38.796875 18.453125 -39.328125 C 18.273438 -39.859375 18.09375 -40.304688 17.90625 -40.671875 C 17.46875 -41.597656 16.921875 -42.378906 16.265625 -43.015625 C 15.609375 -43.660156 14.910156 -43.984375 14.171875 -43.984375 C 13.597656 -43.984375 13.140625 -43.769531 12.796875 -43.34375 C 12.453125 -42.914062 12.28125 -42.40625 12.28125 -41.8125 C 12.28125 -41.164062 12.460938 -40.457031 12.828125 -39.6875 C 13.203125 -38.914062 13.65625 -38.097656 14.1875 -37.234375 C 14.726562 -36.378906 15.234375 -35.46875 15.703125 -34.5 L 19.84375 -34.5 C 20.394531 -34.5 20.84375 -34.328125 21.1875 -33.984375 C 21.53125 -33.640625 21.703125 -33.191406 21.703125 -32.640625 L 21.703125 -32.53125 C 21.703125 -31.976562 21.53125 -31.53125 21.1875 -31.1875 C 20.84375 -30.84375 20.394531 -30.671875 19.84375 -30.671875 L 17.109375 -30.671875 C 17.109375 -30.421875 17.109375 -30.195312 17.109375 -30 C 17.109375 -29.800781 17.109375 -29.597656 17.109375 -29.390625 C 17.109375 -29.390625 17.109375 -29.015625 17.109375 -28.265625 C 17.109375 -27.523438 17.109375 -26.613281 17.109375 -25.53125 C 17.109375 -22.539062 17.179688 -20.023438 17.328125 -17.984375 C 17.484375 -15.953125 17.675781 -14.269531 17.90625 -12.9375 C 18.132812 -11.601562 18.382812 -10.5 18.65625 -9.625 C 18.9375 -8.75 19.195312 -7.988281 19.4375 -7.34375 C 19.675781 -6.695312 19.867188 -6.050781 20.015625 -5.40625 C 20.171875 -4.769531 20.25 -3.992188 20.25 -3.078125 C 20.25 -2.242188 20.046875 -1.613281 19.640625 -1.1875 C 19.242188 -0.757812 18.75 -0.457031 18.15625 -0.28125 C 17.570312 -0.113281 16.992188 -0.0234375 16.421875 -0.015625 C 15.847656 -0.00390625 15.375 0 15 0 L 6.078125 0 C 5.703125 0 5.226562 -0.00390625 4.65625 -0.015625 C 4.082031 -0.0234375 3.5 -0.113281 2.90625 -0.28125 C 2.320312 -0.457031 1.828125 -0.757812 1.421875 -1.1875 C 1.023438 -1.613281 0.828125 -2.242188 0.828125 -3.078125 C 0.828125 -3.992188 0.898438 -4.769531 1.046875 -5.40625 C 1.203125 -6.050781 1.398438 -6.695312 1.640625 -7.34375 C 1.878906 -7.988281 2.128906 -8.75 2.390625 -9.625 C 2.660156 -10.5 2.914062 -11.601562 3.15625 -12.9375 C 3.394531 -14.269531 3.585938 -15.953125 3.734375 -17.984375 C 3.890625 -20.023438 3.96875 -22.539062 3.96875 -25.53125 L 3.9375 -30.671875 Z M 2.203125 -30.671875 "/></g></g></g><g fill="#1800ad" fill-opacity="1"><g transform="translate(119.955269, 222.529937)"><g><path d="M 17.21875 0.515625 C 13.769531 0.515625 10.820312 -0.222656 8.375 -1.703125 C 5.9375 -3.191406 4.070312 -5.269531 2.78125 -7.9375 C 1.5 -10.601562 0.859375 -13.71875 0.859375 -17.28125 C 0.859375 -20.820312 1.5 -23.921875 2.78125 -26.578125 C 4.070312 -29.234375 5.9375 -31.300781 8.375 -32.78125 C 10.820312 -34.269531 13.769531 -35.015625 17.21875 -35.015625 C 20.664062 -35.015625 23.609375 -34.269531 26.046875 -32.78125 C 28.484375 -31.300781 30.34375 -29.234375 31.625 -26.578125 C 32.914062 -23.921875 33.5625 -20.820312 33.5625 -17.28125 C 33.5625 -13.71875 32.914062 -10.601562 31.625 -7.9375 C 30.34375 -5.269531 28.484375 -3.191406 26.046875 -1.703125 C 23.609375 -0.222656 20.664062 0.515625 17.21875 0.515625 Z M 14.140625 -17.21875 C 14.140625 -14.632812 14.421875 -12.550781 14.984375 -10.96875 C 15.546875 -9.382812 16.289062 -8.59375 17.21875 -8.59375 C 18.132812 -8.59375 18.875 -9.382812 19.4375 -10.96875 C 20 -12.550781 20.28125 -14.632812 20.28125 -17.21875 C 20.28125 -19.8125 20 -21.898438 19.4375 -23.484375 C 18.875 -25.078125 18.132812 -25.875 17.21875 -25.875 C 16.289062 -25.875 15.546875 -25.078125 14.984375 -23.484375 C 14.421875 -21.898438 14.140625 -19.8125 14.140625 -17.21875 Z M 14.140625 -17.21875 "/></g></g></g><g fill="#1800ad" fill-opacity="1"><g transform="translate(154.386271, 222.529937)"><g><path d="M 17.21875 0.515625 C 13.769531 0.515625 10.820312 -0.222656 8.375 -1.703125 C 5.9375 -3.191406 4.070312 -5.269531 2.78125 -7.9375 C 1.5 -10.601562 0.859375 -13.71875 0.859375 -17.28125 C 0.859375 -20.820312 1.5 -23.921875 2.78125 -26.578125 C 4.070312 -29.234375 5.9375 -31.300781 8.375 -32.78125 C 10.820312 -34.269531 13.769531 -35.015625 17.21875 -35.015625 C 20.664062 -35.015625 23.609375 -34.269531 26.046875 -32.78125 C 28.484375 -31.300781 30.34375 -29.234375 31.625 -26.578125 C 32.914062 -23.921875 33.5625 -20.820312 33.5625 -17.28125 C 33.5625 -13.71875 32.914062 -10.601562 31.625 -7.9375 C 30.34375 -5.269531 28.484375 -3.191406 26.046875 -1.703125 C 23.609375 -0.222656 20.664062 0.515625 17.21875 0.515625 Z M 14.140625 -17.21875 C 14.140625 -14.632812 14.421875 -12.550781 14.984375 -10.96875 C 15.546875 -9.382812 16.289062 -8.59375 17.21875 -8.59375 C 18.132812 -8.59375 18.875 -9.382812 19.4375 -10.96875 C 20 -12.550781 20.28125 -14.632812 20.28125 -17.21875 C 20.28125 -19.8125 20 -21.898438 19.4375 -23.484375 C 18.875 -25.078125 18.132812 -25.875 17.21875 -25.875 C 16.289062 -25.875 15.546875 -25.078125 14.984375 -23.484375 C 14.421875 -21.898438 14.140625 -19.8125 14.140625 -17.21875 Z M 14.140625 -17.21875 "/></g></g></g><g fill="#1800ad" fill-opacity="1"><g transform="translate(188.817272, 222.529937)"><g><path d="M 13.765625 0.515625 C 11.191406 0.515625 8.9375 -0.164062 7 -1.53125 C 5.070312 -2.90625 3.566406 -4.910156 2.484375 -7.546875 C 1.398438 -10.191406 0.859375 -13.425781 0.859375 -17.25 C 0.859375 -23.15625 1.816406 -27.59375 3.734375 -30.5625 C 5.660156 -33.53125 8.253906 -35.015625 11.515625 -35.015625 C 12.878906 -35.015625 14.046875 -34.816406 15.015625 -34.421875 C 15.992188 -34.035156 16.816406 -33.585938 17.484375 -33.078125 C 18.148438 -32.578125 18.6875 -32.128906 19.09375 -31.734375 C 19.5 -31.347656 19.789062 -31.15625 19.96875 -31.15625 C 20.15625 -31.15625 20.253906 -31.242188 20.265625 -31.421875 C 20.273438 -31.609375 20.28125 -32.003906 20.28125 -32.609375 C 20.28125 -33.640625 20.128906 -34.707031 19.828125 -35.8125 C 19.535156 -36.914062 19.191406 -38.050781 18.796875 -39.21875 C 18.410156 -40.394531 18.066406 -41.597656 17.765625 -42.828125 C 17.460938 -44.054688 17.3125 -45.316406 17.3125 -46.609375 C 17.3125 -47.429688 17.515625 -48.054688 17.921875 -48.484375 C 18.328125 -48.910156 18.820312 -49.207031 19.40625 -49.375 C 19.988281 -49.550781 20.566406 -49.644531 21.140625 -49.65625 C 21.722656 -49.675781 22.195312 -49.6875 22.5625 -49.6875 L 30.78125 -49.6875 C 31.144531 -49.6875 31.613281 -49.675781 32.1875 -49.65625 C 32.757812 -49.644531 33.335938 -49.550781 33.921875 -49.375 C 34.515625 -49.207031 35.007812 -48.910156 35.40625 -48.484375 C 35.8125 -48.054688 36.015625 -47.429688 36.015625 -46.609375 C 36.015625 -45.253906 35.859375 -43.832031 35.546875 -42.34375 C 35.242188 -40.863281 34.878906 -39.273438 34.453125 -37.578125 C 34.023438 -35.890625 33.65625 -34.050781 33.34375 -32.0625 C 33.03125 -30.070312 32.875 -27.894531 32.875 -25.53125 C 32.875 -22.539062 32.945312 -20.023438 33.09375 -17.984375 C 33.25 -15.953125 33.445312 -14.269531 33.6875 -12.9375 C 33.925781 -11.601562 34.175781 -10.5 34.4375 -9.625 C 34.707031 -8.75 34.960938 -7.988281 35.203125 -7.34375 C 35.441406 -6.695312 35.632812 -6.050781 35.78125 -5.40625 C 35.9375 -4.769531 36.015625 -3.992188 36.015625 -3.078125 C 36.015625 -2.242188 35.816406 -1.613281 35.421875 -1.1875 C 35.035156 -0.757812 34.566406 -0.457031 34.015625 -0.28125 C 33.460938 -0.113281 32.929688 -0.0234375 32.421875 -0.015625 C 31.921875 -0.00390625 31.554688 0 31.328125 0 C 30.472656 0 29.707031 -0.0703125 29.03125 -0.21875 C 28.351562 -0.375 27.65625 -0.523438 26.9375 -0.671875 C 26.226562 -0.816406 25.367188 -0.890625 24.359375 -0.890625 C 23.296875 -0.890625 22.375 -0.820312 21.59375 -0.6875 C 20.8125 -0.550781 20.0625 -0.382812 19.34375 -0.1875 C 18.632812 0.0078125 17.84375 0.175781 16.96875 0.3125 C 16.09375 0.445312 15.023438 0.515625 13.765625 0.515625 Z M 14.140625 -17.1875 C 14.140625 -14.601562 14.421875 -12.519531 14.984375 -10.9375 C 15.546875 -9.351562 16.289062 -8.5625 17.21875 -8.5625 C 18.132812 -8.5625 18.875 -9.351562 19.4375 -10.9375 C 20 -12.519531 20.28125 -14.601562 20.28125 -17.1875 C 20.28125 -19.78125 20 -21.867188 19.4375 -23.453125 C 18.875 -25.046875 18.132812 -25.84375 17.21875 -25.84375 C 16.289062 -25.84375 15.546875 -25.046875 14.984375 -23.453125 C 14.421875 -21.867188 14.140625 -19.78125 14.140625 -17.1875 Z M 14.140625 -17.1875 "/></g></g></g><g fill="#1800ad" fill-opacity="1"><g transform="translate(225.180277, 222.529937)"><g><path d="M 3.71875 -17.25 C 3.71875 -18.769531 3.601562 -20.054688 3.375 -21.109375 C 3.144531 -22.171875 2.863281 -23.082031 2.53125 -23.84375 C 2.195312 -24.601562 1.863281 -25.28125 1.53125 -25.875 C 1.195312 -26.46875 0.914062 -27.054688 0.6875 -27.640625 C 0.457031 -28.234375 0.34375 -28.898438 0.34375 -29.640625 C 0.34375 -30.441406 0.664062 -31.066406 1.3125 -31.515625 C 1.957031 -31.960938 2.773438 -32.328125 3.765625 -32.609375 C 4.753906 -32.898438 5.765625 -33.1875 6.796875 -33.46875 C 7.210938 -33.582031 7.734375 -33.722656 8.359375 -33.890625 C 8.992188 -34.066406 9.640625 -34.238281 10.296875 -34.40625 C 10.953125 -34.582031 11.535156 -34.726562 12.046875 -34.84375 C 12.566406 -34.957031 12.941406 -35.015625 13.171875 -35.015625 C 13.753906 -35.015625 14.328125 -34.804688 14.890625 -34.390625 C 15.453125 -33.984375 15.914062 -33.265625 16.28125 -32.234375 C 16.65625 -31.210938 16.84375 -29.78125 16.84375 -27.9375 C 16.84375 -26.71875 16.847656 -25.441406 16.859375 -24.109375 C 16.867188 -22.773438 16.875 -21.507812 16.875 -20.3125 C 16.875 -19.125 16.875 -18.101562 16.875 -17.25 C 16.875 -15.78125 17.023438 -14.351562 17.328125 -12.96875 C 17.640625 -11.59375 18.007812 -10.296875 18.4375 -9.078125 C 18.863281 -7.859375 19.234375 -6.738281 19.546875 -5.71875 C 19.859375 -4.707031 20.015625 -3.828125 20.015625 -3.078125 C 20.015625 -2.242188 19.835938 -1.613281 19.484375 -1.1875 C 19.140625 -0.757812 18.707031 -0.457031 18.1875 -0.28125 C 17.675781 -0.113281 17.160156 -0.0234375 16.640625 -0.015625 C 16.128906 -0.00390625 15.6875 0 15.3125 0 L 5.3125 0 C 4.945312 0 4.503906 -0.00390625 3.984375 -0.015625 C 3.460938 -0.0234375 2.941406 -0.113281 2.421875 -0.28125 C 1.910156 -0.457031 1.484375 -0.757812 1.140625 -1.1875 C 0.796875 -1.613281 0.625 -2.242188 0.625 -3.078125 C 0.625 -3.992188 0.773438 -4.953125 1.078125 -5.953125 C 1.390625 -6.953125 1.753906 -8.023438 2.171875 -9.171875 C 2.585938 -10.328125 2.945312 -11.566406 3.25 -12.890625 C 3.5625 -14.210938 3.71875 -15.664062 3.71875 -17.25 Z M 10.21875 -37.09375 C 9.820312 -37.09375 9.257812 -37.238281 8.53125 -37.53125 C 7.8125 -37.832031 7.039062 -38.25 6.21875 -38.78125 C 5.40625 -39.3125 4.625 -39.925781 3.875 -40.625 C 3.132812 -41.320312 2.523438 -42.085938 2.046875 -42.921875 C 1.578125 -43.765625 1.34375 -44.648438 1.34375 -45.578125 C 1.34375 -46.492188 1.539062 -47.296875 1.9375 -47.984375 C 2.34375 -48.679688 2.867188 -49.222656 3.515625 -49.609375 C 4.160156 -50.003906 4.863281 -50.203125 5.625 -50.203125 C 6.675781 -50.203125 7.578125 -49.898438 8.328125 -49.296875 C 9.078125 -48.703125 9.707031 -48.09375 10.21875 -47.46875 C 10.738281 -48.09375 11.375 -48.703125 12.125 -49.296875 C 12.875 -49.898438 13.773438 -50.203125 14.828125 -50.203125 C 15.585938 -50.203125 16.296875 -50.003906 16.953125 -49.609375 C 17.609375 -49.222656 18.128906 -48.679688 18.515625 -47.984375 C 18.910156 -47.296875 19.109375 -46.492188 19.109375 -45.578125 C 19.109375 -44.648438 18.875 -43.765625 18.40625 -42.921875 C 17.9375 -42.085938 17.328125 -41.320312 16.578125 -40.625 C 15.828125 -39.925781 15.035156 -39.3125 14.203125 -38.78125 C 13.378906 -38.25 12.609375 -37.832031 11.890625 -37.53125 C 11.179688 -37.238281 10.625 -37.09375 10.21875 -37.09375 Z M 10.21875 -37.09375 "/></g></g></g><g fill="#1800ad" fill-opacity="1"><g transform="translate(245.535263, 222.529937)"><g><path d="M 0.34375 -29.640625 C 0.34375 -30.441406 0.664062 -31.066406 1.3125 -31.515625 C 1.957031 -31.960938 2.773438 -32.328125 3.765625 -32.609375 C 4.753906 -32.898438 5.765625 -33.1875 6.796875 -33.46875 C 7.210938 -33.582031 7.734375 -33.722656 8.359375 -33.890625 C 8.992188 -34.066406 9.640625 -34.238281 10.296875 -34.40625 C 10.953125 -34.582031 11.535156 -34.726562 12.046875 -34.84375 C 12.566406 -34.957031 12.941406 -35.015625 13.171875 -35.015625 C 13.816406 -35.015625 14.429688 -34.765625 15.015625 -34.265625 C 15.609375 -33.773438 16.085938 -32.863281 16.453125 -31.53125 C 16.503906 -31.34375 16.582031 -31.191406 16.6875 -31.078125 C 16.789062 -30.960938 16.957031 -30.90625 17.1875 -30.90625 C 17.382812 -30.90625 17.757812 -31.113281 18.3125 -31.53125 C 18.863281 -31.945312 19.578125 -32.425781 20.453125 -32.96875 C 21.328125 -33.507812 22.363281 -33.984375 23.5625 -34.390625 C 24.757812 -34.804688 26.117188 -35.015625 27.640625 -35.015625 C 29.734375 -35.015625 31.421875 -34.546875 32.703125 -33.609375 C 33.992188 -32.679688 34.941406 -31.398438 35.546875 -29.765625 C 36.160156 -28.140625 36.46875 -26.269531 36.46875 -24.15625 L 36.46875 -17.25 C 36.46875 -15.664062 36.617188 -14.207031 36.921875 -12.875 C 37.234375 -11.539062 37.601562 -10.300781 38.03125 -9.15625 C 38.457031 -8.019531 38.828125 -6.953125 39.140625 -5.953125 C 39.453125 -4.953125 39.609375 -3.992188 39.609375 -3.078125 C 39.609375 -2.242188 39.40625 -1.613281 39 -1.1875 C 38.59375 -0.757812 38.097656 -0.457031 37.515625 -0.28125 C 36.929688 -0.113281 36.347656 -0.0234375 35.765625 -0.015625 C 35.191406 -0.00390625 34.722656 0 34.359375 0 L 27.90625 0 C 27.613281 0 27.207031 0 26.6875 0 C 26.164062 0 25.601562 -0.0351562 25 -0.109375 C 24.40625 -0.191406 23.832031 -0.335938 23.28125 -0.546875 C 22.726562 -0.753906 22.28125 -1.054688 21.9375 -1.453125 C 21.59375 -1.859375 21.421875 -2.398438 21.421875 -3.078125 C 21.421875 -4.609375 21.585938 -6.148438 21.921875 -7.703125 C 22.253906 -9.265625 22.585938 -10.835938 22.921875 -12.421875 C 23.253906 -14.003906 23.398438 -15.613281 23.359375 -17.25 C 23.335938 -17.957031 23.28125 -18.707031 23.1875 -19.5 C 23.09375 -20.300781 22.929688 -21.050781 22.703125 -21.75 C 22.472656 -22.445312 22.140625 -23.019531 21.703125 -23.46875 C 21.265625 -23.925781 20.703125 -24.15625 20.015625 -24.15625 C 19.273438 -24.15625 18.6875 -23.925781 18.25 -23.46875 C 17.8125 -23.019531 17.488281 -22.445312 17.28125 -21.75 C 17.070312 -21.050781 16.9375 -20.296875 16.875 -19.484375 C 16.820312 -18.679688 16.796875 -17.9375 16.796875 -17.25 C 16.796875 -15.914062 16.957031 -14.601562 17.28125 -13.3125 C 17.601562 -12.03125 17.972656 -10.789062 18.390625 -9.59375 C 18.804688 -8.394531 19.171875 -7.25 19.484375 -6.15625 C 19.804688 -5.0625 19.96875 -4.035156 19.96875 -3.078125 C 19.96875 -2.398438 19.796875 -1.859375 19.453125 -1.453125 C 19.109375 -1.054688 18.660156 -0.753906 18.109375 -0.546875 C 17.554688 -0.335938 16.976562 -0.191406 16.375 -0.109375 C 15.78125 -0.0351562 15.222656 0 14.703125 0 C 14.191406 0 13.785156 0 13.484375 0 L 5.828125 0 C 5.460938 0 4.988281 -0.00390625 4.40625 -0.015625 C 3.832031 -0.0234375 3.253906 -0.113281 2.671875 -0.28125 C 2.085938 -0.457031 1.59375 -0.757812 1.1875 -1.1875 C 0.789062 -1.613281 0.59375 -2.242188 0.59375 -3.078125 C 0.59375 -3.992188 0.742188 -4.953125 1.046875 -5.953125 C 1.359375 -6.953125 1.726562 -8.019531 2.15625 -9.15625 C 2.582031 -10.300781 2.945312 -11.539062 3.25 -12.875 C 3.5625 -14.207031 3.71875 -15.664062 3.71875 -17.25 C 3.71875 -18.769531 3.601562 -20.054688 3.375 -21.109375 C 3.144531 -22.171875 2.863281 -23.082031 2.53125 -23.84375 C 2.195312 -24.601562 1.863281 -25.28125 1.53125 -25.875 C 1.195312 -26.46875 0.914062 -27.054688 0.6875 -27.640625 C 0.457031 -28.234375 0.34375 -28.898438 0.34375 -29.640625 Z M 0.34375 -29.640625 "/></g></g></g><g fill="#1800ad" fill-opacity="1"><g transform="translate(285.486265, 222.529937)"><g><path d="M 16.21875 16.109375 C 14.375 16.109375 12.539062 15.890625 10.71875 15.453125 C 8.90625 15.015625 7.253906 14.398438 5.765625 13.609375 C 4.285156 12.816406 3.097656 11.890625 2.203125 10.828125 C 1.304688 9.773438 0.859375 8.613281 0.859375 7.34375 C 0.859375 6.238281 1.097656 5.160156 1.578125 4.109375 C 2.066406 3.066406 2.722656 2.207031 3.546875 1.53125 C 4.378906 0.851562 5.300781 0.515625 6.3125 0.515625 C 6.957031 0.515625 7.539062 0.632812 8.0625 0.875 C 8.59375 1.113281 9.128906 1.40625 9.671875 1.75 C 10.210938 2.101562 10.816406 2.457031 11.484375 2.8125 C 12.148438 3.164062 12.941406 3.460938 13.859375 3.703125 C 14.785156 3.953125 15.90625 4.078125 17.21875 4.078125 C 17.8125 4.078125 18.375 3.925781 18.90625 3.625 C 19.4375 3.320312 19.875 2.925781 20.21875 2.4375 C 20.5625 1.957031 20.742188 1.4375 20.765625 0.875 C 20.785156 0.3125 20.566406 -0.242188 20.109375 -0.796875 C 19.859375 -0.492188 19.410156 -0.238281 18.765625 -0.03125 C 18.117188 0.175781 17.398438 0.320312 16.609375 0.40625 C 15.816406 0.5 15.050781 0.546875 14.3125 0.546875 C 12.175781 0.546875 10.28125 0.0820312 8.625 -0.84375 C 6.96875 -1.78125 5.566406 -3.0625 4.421875 -4.6875 C 3.285156 -6.320312 2.429688 -8.207031 1.859375 -10.34375 C 1.285156 -12.488281 1 -14.78125 1 -17.21875 C 1 -19.601562 1.273438 -21.691406 1.828125 -23.484375 C 2.378906 -25.285156 3.117188 -26.816406 4.046875 -28.078125 C 4.984375 -29.347656 6.019531 -30.394531 7.15625 -31.21875 C 8.289062 -32.050781 9.453125 -32.703125 10.640625 -33.171875 C 11.828125 -33.640625 12.945312 -33.972656 14 -34.171875 C 15.0625 -34.367188 15.960938 -34.46875 16.703125 -34.46875 L 31.21875 -34.46875 C 31.59375 -34.46875 32.066406 -34.460938 32.640625 -34.453125 C 33.210938 -34.441406 33.789062 -34.347656 34.375 -34.171875 C 34.96875 -33.992188 35.460938 -33.691406 35.859375 -33.265625 C 36.265625 -32.847656 36.46875 -32.222656 36.46875 -31.390625 C 36.46875 -30.585938 36.3125 -29.789062 36 -29 C 35.6875 -28.207031 35.316406 -27.351562 34.890625 -26.4375 C 34.472656 -25.53125 34.109375 -24.492188 33.796875 -23.328125 C 33.484375 -22.171875 33.328125 -20.820312 33.328125 -19.28125 C 33.328125 -17.332031 33.414062 -15.570312 33.59375 -14 C 33.78125 -12.4375 33.988281 -10.925781 34.21875 -9.46875 C 34.445312 -8.007812 34.65625 -6.476562 34.84375 -4.875 C 35.03125 -3.28125 35.125 -1.472656 35.125 0.546875 C 35.125 2.578125 34.757812 4.519531 34.03125 6.375 C 33.3125 8.238281 32.1875 9.898438 30.65625 11.359375 C 29.125 12.828125 27.160156 13.984375 24.765625 14.828125 C 22.378906 15.679688 19.53125 16.109375 16.21875 16.109375 Z M 14.140625 -17.25 C 14.140625 -14.675781 14.421875 -12.59375 14.984375 -11 C 15.546875 -9.414062 16.289062 -8.625 17.21875 -8.625 C 18.132812 -8.625 18.875 -9.414062 19.4375 -11 C 20 -12.59375 20.28125 -14.675781 20.28125 -17.25 C 20.28125 -19.84375 20 -21.929688 19.4375 -23.515625 C 18.875 -25.109375 18.132812 -25.90625 17.21875 -25.90625 C 16.289062 -25.90625 15.546875 -25.109375 14.984375 -23.515625 C 14.421875 -21.929688 14.140625 -19.84375 14.140625 -17.25 Z M 14.140625 -17.25 "/></g></g></g><g clip-path="url(#a8c7dd19a4)"><g clip-path="url(#bd63d7992a)"><g transform="matrix(1, 0, 0, 1, 239, 152)"><g clip-path="url(#81aabbbf84)"><g clip-path="url(#b37d412b80)"><g clip-path="url(#8d03fd83bf)"><path fill="#ffffff" d="M 0.0664062 0.335938 L 19.867188 0.335938 L 19.867188 20.136719 L 0.0664062 20.136719 Z M 0.0664062 0.335938 " fill-opacity="1" fill-rule="nonzero"/></g></g></g></g></g></g><g clip-path="url(#8eeede1afc)"><g clip-path="url(#c6a878829d)"><g clip-path="url(#318fd44c17)"><g transform="matrix(1, 0, 0, 1, 302, 178)"><g clip-path="url(#ac289f5529)"><g clip-path="url(#1e0f731594)"><g clip-path="url(#2cdc71850e)"><g clip-path="url(#8312d7709b)"><path fill="#ffffff" d="M -2.441406 5.449219 L 9.226562 -2.152344 L 16.824219 9.511719 L 5.160156 17.113281 Z M -2.441406 5.449219 " fill-opacity="1" fill-rule="nonzero"/></g></g></g></g></g></g></g></g><g clip-path="url(#9c53d91fef)"><g clip-path="url(#3dd977a175)"><g transform="matrix(1, 0, 0, 1, 158, 134)"><g clip-path="url(#8519539a0b)"><g clip-path="url(#f5d8d0a577)"><g clip-path="url(#675f163a7f)"><path fill="#ffffff" d="M 0.0117188 0.527344 L 36.378906 0.527344 L 36.378906 28.234375 L 0.0117188 28.234375 Z M 0.0117188 0.527344 " fill-opacity="1" fill-rule="nonzero"/></g></g></g></g></g></g><g clip-path="url(#fb22658bc8)"><path fill="#1800ad" d="M 244.554688 178.074219 C 244.585938 177.921875 244.621094 177.761719 244.640625 177.601562 C 244.578125 177.605469 244.519531 177.609375 244.460938 177.609375 C 243.128906 177.609375 242.046875 176.527344 242.046875 175.195312 C 242.046875 175.101562 242.054688 175.003906 242.066406 174.914062 C 240.546875 174.78125 239.355469 173.503906 239.355469 171.945312 C 239.355469 171.488281 239.457031 171.054688 239.640625 170.671875 C 238.804688 170.296875 238.21875 169.449219 238.21875 168.472656 C 238.21875 168.085938 238.304688 167.71875 238.46875 167.398438 C 238.148438 167.292969 237.824219 167.199219 237.488281 167.125 C 237.492188 167.109375 237.492188 167.09375 237.492188 167.078125 C 237.5 166.917969 237.394531 166.777344 237.238281 166.746094 C 236.675781 166.632812 236.09375 166.574219 235.460938 166.574219 C 233.882812 166.574219 232.316406 166.964844 230.933594 167.703125 C 230.792969 167.78125 230.730469 167.949219 230.78125 168.097656 C 230.789062 168.113281 230.796875 168.128906 230.800781 168.148438 C 228.03125 169.746094 226.171875 172.746094 226.171875 176.183594 C 226.171875 181.3125 230.328125 185.472656 235.460938 185.472656 C 239.945312 185.472656 243.679688 182.296875 244.554688 178.074219 Z M 244.554688 178.074219 " fill-opacity="1" fill-rule="nonzero"/></g><g clip-path="url(#4e28b1d4f1)"><path fill="#1800ad" d="M 321.867188 230.101562 C 321.867188 230.101562 322.851562 234.917969 330.097656 231.253906 C 330.097656 231.253906 333.242188 228.9375 329.007812 225.871094 C 329.007812 225.871094 323.371094 217.84375 321.867188 230.101562 Z M 321.867188 230.101562 " fill-opacity="1" fill-rule="nonzero"/></g><path fill="#1800ad" d="M 335.507812 227.808594 C 335.507812 227.808594 335.992188 230.167969 339.542969 228.371094 C 339.542969 228.371094 341.085938 227.234375 339.011719 225.730469 C 339.011719 225.730469 336.25 221.800781 335.507812 227.808594 Z M 335.507812 227.808594 " fill-opacity="1" fill-rule="nonzero"/><g clip-path="url(#5e00d40184)"><path fill="#1800ad" d="M 333.589844 235.957031 C 333.589844 235.957031 325.484375 238.589844 329.382812 241.445312 C 333.269531 244.296875 335.226562 245.304688 335.226562 245.304688 C 335.226562 245.304688 341.714844 236.277344 337.648438 236.117188 C 333.589844 235.957031 333.589844 235.957031 333.589844 235.957031 Z M 333.589844 235.957031 " fill-opacity="1" fill-rule="nonzero"/></g><g transform="matrix(1, 0, 0, 1, 114, 222)"><g clip-path="url(#27e875b717)"><g fill="#000000" fill-opacity="1"><g transform="translate(1.493457, 12.172734)"><g><path d="M 2.3125 -5.53125 L 2.3125 -0.46875 C 2.3125 -0.300781 2.265625 -0.160156 2.171875 -0.046875 C 2.078125 0.0546875 1.929688 0.109375 1.734375 0.109375 C 1.535156 0.109375 1.382812 0.0546875 1.28125 -0.046875 C 1.1875 -0.160156 1.140625 -0.300781 1.140625 -0.46875 L 1.140625 -5.53125 C 1.140625 -5.800781 1.128906 -5.992188 1.109375 -6.109375 C 1.085938 -6.234375 1.054688 -6.320312 1.015625 -6.375 C 0.972656 -6.4375 0.925781 -6.5 0.875 -6.5625 C 0.863281 -6.59375 0.84375 -6.632812 0.8125 -6.6875 C 0.789062 -6.738281 0.78125 -6.796875 0.78125 -6.859375 C 0.78125 -7.015625 0.832031 -7.140625 0.9375 -7.234375 C 1.039062 -7.335938 1.171875 -7.390625 1.328125 -7.390625 C 1.460938 -7.390625 1.578125 -7.347656 1.671875 -7.265625 C 1.773438 -7.179688 1.867188 -7.078125 1.953125 -6.953125 C 2.273438 -7.179688 2.617188 -7.347656 2.984375 -7.453125 C 3.359375 -7.566406 3.722656 -7.625 4.078125 -7.625 C 4.867188 -7.625 5.460938 -7.363281 5.859375 -6.84375 C 6.253906 -6.332031 6.453125 -5.65625 6.453125 -4.8125 L 6.453125 -0.46875 C 6.453125 -0.300781 6.398438 -0.160156 6.296875 -0.046875 C 6.203125 0.0546875 6.054688 0.109375 5.859375 0.109375 C 5.671875 0.109375 5.523438 0.0546875 5.421875 -0.046875 C 5.328125 -0.160156 5.28125 -0.300781 5.28125 -0.46875 L 5.28125 -4.8125 C 5.28125 -5.375 5.164062 -5.804688 4.9375 -6.109375 C 4.707031 -6.421875 4.367188 -6.578125 3.921875 -6.578125 C 3.628906 -6.578125 3.34375 -6.519531 3.0625 -6.40625 C 2.789062 -6.300781 2.523438 -6.148438 2.265625 -5.953125 C 2.296875 -5.796875 2.3125 -5.65625 2.3125 -5.53125 Z M 2.3125 -5.53125 "/></g></g></g><g fill="#000000" fill-opacity="1"><g transform="translate(13.528377, 12.172734)"><g><path d="M 3.453125 0.125 C 2.847656 0.125 2.335938 0.0078125 1.921875 -0.21875 C 1.515625 -0.457031 1.203125 -0.773438 0.984375 -1.171875 C 0.773438 -1.578125 0.671875 -2.03125 0.671875 -2.53125 L 0.671875 -5.015625 C 0.671875 -5.515625 0.773438 -5.960938 0.984375 -6.359375 C 1.203125 -6.765625 1.515625 -7.082031 1.921875 -7.3125 C 2.335938 -7.550781 2.847656 -7.671875 3.453125 -7.671875 C 4.054688 -7.671875 4.5625 -7.550781 4.96875 -7.3125 C 5.382812 -7.082031 5.695312 -6.765625 5.90625 -6.359375 C 6.125 -5.960938 6.234375 -5.515625 6.234375 -5.015625 L 6.234375 -2.53125 C 6.234375 -2.03125 6.125 -1.578125 5.90625 -1.171875 C 5.695312 -0.773438 5.382812 -0.457031 4.96875 -0.21875 C 4.5625 0.0078125 4.054688 0.125 3.453125 0.125 Z M 3.453125 -0.953125 C 3.992188 -0.953125 4.398438 -1.09375 4.671875 -1.375 C 4.941406 -1.65625 5.078125 -2.039062 5.078125 -2.53125 L 5.078125 -5.03125 C 5.078125 -5.519531 4.941406 -5.898438 4.671875 -6.171875 C 4.398438 -6.453125 3.992188 -6.59375 3.453125 -6.59375 C 2.921875 -6.59375 2.515625 -6.453125 2.234375 -6.171875 C 1.960938 -5.898438 1.828125 -5.519531 1.828125 -5.03125 L 1.828125 -2.53125 C 1.828125 -2.039062 1.960938 -1.65625 2.234375 -1.375 C 2.515625 -1.09375 2.921875 -0.953125 3.453125 -0.953125 Z M 3.453125 -0.953125 "/></g></g></g><g fill="#000000" fill-opacity="1"><g transform="translate(24.894049, 12.172734)"><g><path d="M 3.453125 0.125 C 2.847656 0.125 2.335938 0.0078125 1.921875 -0.21875 C 1.515625 -0.457031 1.203125 -0.773438 0.984375 -1.171875 C 0.773438 -1.578125 0.671875 -2.03125 0.671875 -2.53125 L 0.671875 -5.015625 C 0.671875 -5.515625 0.773438 -5.960938 0.984375 -6.359375 C 1.203125 -6.765625 1.515625 -7.082031 1.921875 -7.3125 C 2.335938 -7.550781 2.847656 -7.671875 3.453125 -7.671875 C 4.054688 -7.671875 4.5625 -7.550781 4.96875 -7.3125 C 5.382812 -7.082031 5.695312 -6.765625 5.90625 -6.359375 C 6.125 -5.960938 6.234375 -5.515625 6.234375 -5.015625 L 6.234375 -2.53125 C 6.234375 -2.03125 6.125 -1.578125 5.90625 -1.171875 C 5.695312 -0.773438 5.382812 -0.457031 4.96875 -0.21875 C 4.5625 0.0078125 4.054688 0.125 3.453125 0.125 Z M 3.453125 -0.953125 C 3.992188 -0.953125 4.398438 -1.09375 4.671875 -1.375 C 4.941406 -1.65625 5.078125 -2.039062 5.078125 -2.53125 L 5.078125 -5.03125 C 5.078125 -5.519531 4.941406 -5.898438 4.671875 -6.171875 C 4.398438 -6.453125 3.992188 -6.59375 3.453125 -6.59375 C 2.921875 -6.59375 2.515625 -6.453125 2.234375 -6.171875 C 1.960938 -5.898438 1.828125 -5.519531 1.828125 -5.03125 L 1.828125 -2.53125 C 1.828125 -2.039062 1.960938 -1.65625 2.234375 -1.375 C 2.515625 -1.09375 2.921875 -0.953125 3.453125 -0.953125 Z M 3.453125 -0.953125 "/></g></g></g><g fill="#000000" fill-opacity="1"><g transform="translate(36.259722, 12.172734)"><g><path d="M 3.15625 -7.59375 C 3.6875 -7.59375 4.238281 -7.5 4.8125 -7.3125 L 4.8125 -10.234375 C 4.8125 -10.390625 4.859375 -10.519531 4.953125 -10.625 C 5.054688 -10.738281 5.203125 -10.796875 5.390625 -10.796875 C 5.578125 -10.796875 5.71875 -10.738281 5.8125 -10.625 C 5.914062 -10.519531 5.96875 -10.390625 5.96875 -10.234375 L 5.96875 -1.703125 C 5.96875 -1.492188 5.992188 -1.316406 6.046875 -1.171875 C 6.109375 -1.035156 6.210938 -0.910156 6.359375 -0.796875 C 6.390625 -0.765625 6.414062 -0.722656 6.4375 -0.671875 C 6.457031 -0.628906 6.46875 -0.570312 6.46875 -0.5 C 6.46875 -0.34375 6.410156 -0.21875 6.296875 -0.125 C 6.191406 -0.03125 6.070312 0.015625 5.9375 0.015625 C 5.769531 0.015625 5.617188 -0.0234375 5.484375 -0.109375 C 5.347656 -0.203125 5.238281 -0.320312 5.15625 -0.46875 C 4.820312 -0.300781 4.476562 -0.160156 4.125 -0.046875 C 3.78125 0.0664062 3.414062 0.125 3.03125 0.125 C 2.25 0.125 1.660156 -0.132812 1.265625 -0.65625 C 0.867188 -1.175781 0.671875 -1.851562 0.671875 -2.6875 L 0.671875 -4.59375 C 0.671875 -5.1875 0.742188 -5.707031 0.890625 -6.15625 C 1.046875 -6.601562 1.304688 -6.953125 1.671875 -7.203125 C 2.035156 -7.460938 2.53125 -7.59375 3.15625 -7.59375 Z M 4.8125 -1.703125 L 4.8125 -6.265625 C 4.5625 -6.378906 4.289062 -6.457031 4 -6.5 C 3.71875 -6.550781 3.488281 -6.578125 3.3125 -6.578125 C 2.757812 -6.578125 2.375 -6.414062 2.15625 -6.09375 C 1.9375 -5.78125 1.828125 -5.28125 1.828125 -4.59375 L 1.828125 -2.6875 C 1.828125 -1.507812 2.3125 -0.921875 3.28125 -0.921875 C 3.519531 -0.921875 3.773438 -0.957031 4.046875 -1.03125 C 4.328125 -1.113281 4.59375 -1.222656 4.84375 -1.359375 C 4.832031 -1.410156 4.820312 -1.46875 4.8125 -1.53125 C 4.8125 -1.59375 4.8125 -1.648438 4.8125 -1.703125 Z M 4.8125 -1.703125 "/></g></g></g><g fill="#000000" fill-opacity="1"><g transform="translate(47.982319, 12.172734)"><g><path d="M 1.109375 -1.40625 L 1.109375 -10.21875 C 1.109375 -10.375 1.160156 -10.507812 1.265625 -10.625 C 1.378906 -10.738281 1.519531 -10.796875 1.6875 -10.796875 C 1.851562 -10.796875 1.988281 -10.738281 2.09375 -10.625 C 2.207031 -10.519531 2.265625 -10.382812 2.265625 -10.21875 L 2.265625 -1.40625 C 2.265625 -1.238281 2.273438 -1.097656 2.296875 -0.984375 C 2.328125 -0.878906 2.382812 -0.785156 2.46875 -0.703125 C 2.488281 -0.671875 2.507812 -0.628906 2.53125 -0.578125 C 2.5625 -0.523438 2.578125 -0.472656 2.578125 -0.421875 C 2.578125 -0.265625 2.523438 -0.132812 2.421875 -0.03125 C 2.316406 0.0703125 2.191406 0.125 2.046875 0.125 C 1.910156 0.125 1.769531 0.0859375 1.625 0.015625 C 1.488281 -0.0546875 1.367188 -0.195312 1.265625 -0.40625 C 1.160156 -0.625 1.109375 -0.957031 1.109375 -1.40625 Z M 1.109375 -1.40625 "/></g></g></g><g fill="#000000" fill-opacity="1"><g transform="translate(55.838146, 12.172734)"><g><path d="M 3.453125 -0.90625 C 3.773438 -0.90625 4.046875 -0.941406 4.265625 -1.015625 C 4.492188 -1.097656 4.738281 -1.203125 5 -1.328125 C 5.019531 -1.335938 5.046875 -1.347656 5.078125 -1.359375 C 5.117188 -1.367188 5.164062 -1.375 5.21875 -1.375 C 5.363281 -1.375 5.484375 -1.320312 5.578125 -1.21875 C 5.679688 -1.113281 5.734375 -0.988281 5.734375 -0.84375 C 5.734375 -0.664062 5.644531 -0.515625 5.46875 -0.390625 C 5.300781 -0.265625 5.085938 -0.164062 4.828125 -0.09375 C 4.566406 -0.0195312 4.300781 0.03125 4.03125 0.0625 C 3.757812 0.101562 3.523438 0.125 3.328125 0.125 C 2.484375 0.125 1.828125 -0.113281 1.359375 -0.59375 C 0.898438 -1.070312 0.671875 -1.660156 0.671875 -2.359375 L 0.671875 -5.140625 C 0.671875 -5.847656 0.898438 -6.441406 1.359375 -6.921875 C 1.828125 -7.410156 2.503906 -7.65625 3.390625 -7.65625 C 4.210938 -7.65625 4.828125 -7.429688 5.234375 -6.984375 C 5.648438 -6.546875 5.859375 -5.960938 5.859375 -5.234375 C 5.859375 -4.546875 5.660156 -4.003906 5.265625 -3.609375 C 4.867188 -3.210938 4.226562 -3.015625 3.34375 -3.015625 C 3.125 -3.015625 2.878906 -3.023438 2.609375 -3.046875 C 2.347656 -3.078125 2.085938 -3.113281 1.828125 -3.15625 L 1.828125 -2.28125 C 1.828125 -1.863281 1.960938 -1.53125 2.234375 -1.28125 C 2.515625 -1.03125 2.921875 -0.90625 3.453125 -0.90625 Z M 4.71875 -5.234375 C 4.71875 -5.710938 4.597656 -6.054688 4.359375 -6.265625 C 4.128906 -6.484375 3.796875 -6.59375 3.359375 -6.59375 C 2.878906 -6.59375 2.503906 -6.46875 2.234375 -6.21875 C 1.960938 -5.976562 1.828125 -5.648438 1.828125 -5.234375 L 1.828125 -4.109375 C 2.109375 -4.066406 2.398438 -4.035156 2.703125 -4.015625 C 3.015625 -4.003906 3.242188 -4 3.390625 -4 C 3.765625 -4 4.046875 -4.054688 4.234375 -4.171875 C 4.429688 -4.296875 4.5625 -4.453125 4.625 -4.640625 C 4.6875 -4.828125 4.71875 -5.023438 4.71875 -5.234375 Z M 4.71875 -5.234375 "/></g></g></g><g fill="#000000" fill-opacity="1"><g transform="translate(66.772521, 12.172734)"><g/></g></g><g fill="#000000" fill-opacity="1"><g transform="translate(75.699145, 12.172734)"><g><path d="M 8.859375 -0.453125 C 8.859375 -0.285156 8.804688 -0.140625 8.703125 -0.015625 C 8.597656 0.0976562 8.460938 0.15625 8.296875 0.15625 C 8.171875 0.15625 8.070312 0.125 8 0.0625 C 7.925781 0.0078125 7.847656 -0.0625 7.765625 -0.15625 L 6.8125 -1.296875 C 6.445312 -0.921875 6.019531 -0.582031 5.53125 -0.28125 C 5.039062 0.0078125 4.457031 0.15625 3.78125 0.15625 C 3.175781 0.15625 2.640625 0.03125 2.171875 -0.21875 C 1.703125 -0.46875 1.335938 -0.804688 1.078125 -1.234375 C 0.828125 -1.660156 0.703125 -2.144531 0.703125 -2.6875 C 0.703125 -3.21875 0.8125 -3.675781 1.03125 -4.0625 C 1.257812 -4.457031 1.539062 -4.800781 1.875 -5.09375 C 2.21875 -5.382812 2.570312 -5.640625 2.9375 -5.859375 C 2.5625 -6.253906 2.265625 -6.648438 2.046875 -7.046875 C 1.828125 -7.453125 1.71875 -7.867188 1.71875 -8.296875 C 1.71875 -8.785156 1.832031 -9.195312 2.0625 -9.53125 C 2.300781 -9.875 2.613281 -10.140625 3 -10.328125 C 3.394531 -10.515625 3.8125 -10.609375 4.25 -10.609375 C 4.6875 -10.609375 5.085938 -10.515625 5.453125 -10.328125 C 5.828125 -10.140625 6.117188 -9.898438 6.328125 -9.609375 C 6.546875 -9.316406 6.65625 -9.007812 6.65625 -8.6875 C 6.65625 -8.519531 6.59375 -8.378906 6.46875 -8.265625 C 6.351562 -8.160156 6.226562 -8.109375 6.09375 -8.109375 C 5.957031 -8.109375 5.84375 -8.148438 5.75 -8.234375 C 5.65625 -8.328125 5.585938 -8.4375 5.546875 -8.5625 C 5.484375 -8.8125 5.34375 -9.039062 5.125 -9.25 C 4.90625 -9.457031 4.625 -9.5625 4.28125 -9.5625 C 3.914062 -9.5625 3.585938 -9.445312 3.296875 -9.21875 C 3.015625 -8.988281 2.875 -8.671875 2.875 -8.265625 C 2.875 -7.929688 3.003906 -7.597656 3.265625 -7.265625 C 3.523438 -6.929688 3.785156 -6.601562 4.046875 -6.28125 L 6.8125 -3.109375 C 6.988281 -3.390625 7.144531 -3.675781 7.28125 -3.96875 C 7.425781 -4.269531 7.566406 -4.5625 7.703125 -4.84375 C 7.773438 -5.019531 7.847656 -5.125 7.921875 -5.15625 C 8.003906 -5.195312 8.101562 -5.21875 8.21875 -5.21875 C 8.351562 -5.21875 8.476562 -5.160156 8.59375 -5.046875 C 8.707031 -4.941406 8.765625 -4.804688 8.765625 -4.640625 C 8.765625 -4.441406 8.703125 -4.195312 8.578125 -3.90625 C 8.453125 -3.613281 8.296875 -3.316406 8.109375 -3.015625 C 7.921875 -2.710938 7.738281 -2.4375 7.5625 -2.1875 L 8.71875 -0.796875 C 8.8125 -0.703125 8.859375 -0.585938 8.859375 -0.453125 Z M 6.09375 -2.171875 L 3.625 -5 C 3.332031 -4.84375 3.050781 -4.660156 2.78125 -4.453125 C 2.507812 -4.253906 2.285156 -4.015625 2.109375 -3.734375 C 1.929688 -3.460938 1.84375 -3.148438 1.84375 -2.796875 C 1.84375 -2.472656 1.921875 -2.164062 2.078125 -1.875 C 2.234375 -1.582031 2.445312 -1.347656 2.71875 -1.171875 C 3 -1.003906 3.320312 -0.921875 3.6875 -0.921875 C 4.207031 -0.921875 4.65625 -1.039062 5.03125 -1.28125 C 5.414062 -1.519531 5.769531 -1.816406 6.09375 -2.171875 Z M 6.09375 -2.171875 "/></g></g></g><g fill="#000000" fill-opacity="1"><g transform="translate(89.712069, 12.172734)"><g/></g></g><g fill="#000000" fill-opacity="1"><g transform="translate(98.638693, 12.172734)"><g><path d="M 0.671875 -2.625 L 0.671875 -4.875 C 0.671875 -5.382812 0.757812 -5.84375 0.9375 -6.25 C 1.125 -6.664062 1.414062 -6.992188 1.8125 -7.234375 C 2.207031 -7.484375 2.710938 -7.609375 3.328125 -7.609375 C 3.515625 -7.609375 3.722656 -7.59375 3.953125 -7.5625 C 4.179688 -7.53125 4.40625 -7.476562 4.625 -7.40625 C 4.84375 -7.34375 5.023438 -7.253906 5.171875 -7.140625 C 5.328125 -7.023438 5.40625 -6.878906 5.40625 -6.703125 C 5.40625 -6.566406 5.351562 -6.445312 5.25 -6.34375 C 5.15625 -6.238281 5.039062 -6.1875 4.90625 -6.1875 C 4.832031 -6.1875 4.75 -6.203125 4.65625 -6.234375 C 4.476562 -6.328125 4.296875 -6.40625 4.109375 -6.46875 C 3.929688 -6.539062 3.710938 -6.578125 3.453125 -6.578125 C 2.878906 -6.578125 2.460938 -6.425781 2.203125 -6.125 C 1.953125 -5.832031 1.828125 -5.414062 1.828125 -4.875 L 1.828125 -2.625 C 1.828125 -2.070312 1.953125 -1.644531 2.203125 -1.34375 C 2.460938 -1.050781 2.878906 -0.90625 3.453125 -0.90625 C 3.710938 -0.90625 3.929688 -0.9375 4.109375 -1 C 4.296875 -1.070312 4.476562 -1.15625 4.65625 -1.25 C 4.75 -1.28125 4.832031 -1.296875 4.90625 -1.296875 C 5.039062 -1.296875 5.15625 -1.242188 5.25 -1.140625 C 5.351562 -1.046875 5.40625 -0.929688 5.40625 -0.796875 C 5.40625 -0.609375 5.328125 -0.457031 5.171875 -0.34375 C 5.023438 -0.226562 4.84375 -0.132812 4.625 -0.0625 C 4.40625 0 4.179688 0.046875 3.953125 0.078125 C 3.722656 0.109375 3.515625 0.125 3.328125 0.125 C 2.710938 0.125 2.207031 0.00390625 1.8125 -0.234375 C 1.414062 -0.484375 1.125 -0.8125 0.9375 -1.21875 C 0.757812 -1.632812 0.671875 -2.101562 0.671875 -2.625 Z M 0.671875 -2.625 "/></g></g></g><g fill="#000000" fill-opacity="1"><g transform="translate(108.948436, 12.172734)"><g><path d="M 3.453125 0.125 C 2.847656 0.125 2.335938 0.0078125 1.921875 -0.21875 C 1.515625 -0.457031 1.203125 -0.773438 0.984375 -1.171875 C 0.773438 -1.578125 0.671875 -2.03125 0.671875 -2.53125 L 0.671875 -5.015625 C 0.671875 -5.515625 0.773438 -5.960938 0.984375 -6.359375 C 1.203125 -6.765625 1.515625 -7.082031 1.921875 -7.3125 C 2.335938 -7.550781 2.847656 -7.671875 3.453125 -7.671875 C 4.054688 -7.671875 4.5625 -7.550781 4.96875 -7.3125 C 5.382812 -7.082031 5.695312 -6.765625 5.90625 -6.359375 C 6.125 -5.960938 6.234375 -5.515625 6.234375 -5.015625 L 6.234375 -2.53125 C 6.234375 -2.03125 6.125 -1.578125 5.90625 -1.171875 C 5.695312 -0.773438 5.382812 -0.457031 4.96875 -0.21875 C 4.5625 0.0078125 4.054688 0.125 3.453125 0.125 Z M 3.453125 -0.953125 C 3.992188 -0.953125 4.398438 -1.09375 4.671875 -1.375 C 4.941406 -1.65625 5.078125 -2.039062 5.078125 -2.53125 L 5.078125 -5.03125 C 5.078125 -5.519531 4.941406 -5.898438 4.671875 -6.171875 C 4.398438 -6.453125 3.992188 -6.59375 3.453125 -6.59375 C 2.921875 -6.59375 2.515625 -6.453125 2.234375 -6.171875 C 1.960938 -5.898438 1.828125 -5.519531 1.828125 -5.03125 L 1.828125 -2.53125 C 1.828125 -2.039062 1.960938 -1.65625 2.234375 -1.375 C 2.515625 -1.09375 2.921875 -0.953125 3.453125 -0.953125 Z M 3.453125 -0.953125 "/></g></g></g><g fill="#000000" fill-opacity="1"><g transform="translate(120.314109, 12.172734)"><g><path d="M 1.109375 -0.484375 L 1.109375 -8 C 1.109375 -8.9375 1.351562 -9.628906 1.84375 -10.078125 C 2.34375 -10.523438 2.960938 -10.765625 3.703125 -10.796875 C 3.765625 -10.796875 3.867188 -10.789062 4.015625 -10.78125 C 4.160156 -10.78125 4.3125 -10.757812 4.46875 -10.71875 C 4.632812 -10.675781 4.773438 -10.609375 4.890625 -10.515625 C 5.003906 -10.421875 5.0625 -10.289062 5.0625 -10.125 C 5.0625 -9.957031 5.003906 -9.820312 4.890625 -9.71875 C 4.773438 -9.625 4.644531 -9.578125 4.5 -9.578125 C 4.363281 -9.578125 4.226562 -9.59375 4.09375 -9.625 C 3.96875 -9.65625 3.800781 -9.671875 3.59375 -9.671875 C 3.15625 -9.671875 2.820312 -9.515625 2.59375 -9.203125 C 2.375 -8.898438 2.265625 -8.535156 2.265625 -8.109375 L 2.265625 -7.1875 L 3.8125 -7.1875 C 3.957031 -7.1875 4.082031 -7.132812 4.1875 -7.03125 C 4.289062 -6.925781 4.34375 -6.796875 4.34375 -6.640625 C 4.34375 -6.484375 4.289062 -6.351562 4.1875 -6.25 C 4.082031 -6.144531 3.957031 -6.09375 3.8125 -6.09375 L 2.265625 -6.09375 L 2.265625 -0.484375 C 2.265625 -0.328125 2.210938 -0.191406 2.109375 -0.078125 C 2.015625 0.0234375 1.875 0.078125 1.6875 0.078125 C 1.5 0.078125 1.351562 0.0234375 1.25 -0.078125 C 1.15625 -0.191406 1.109375 -0.328125 1.109375 -0.484375 Z M 1.109375 -0.484375 "/></g></g></g><g fill="#000000" fill-opacity="1"><g transform="translate(129.67203, 12.172734)"><g><path d="M 1.109375 -0.484375 L 1.109375 -8 C 1.109375 -8.9375 1.351562 -9.628906 1.84375 -10.078125 C 2.34375 -10.523438 2.960938 -10.765625 3.703125 -10.796875 C 3.765625 -10.796875 3.867188 -10.789062 4.015625 -10.78125 C 4.160156 -10.78125 4.3125 -10.757812 4.46875 -10.71875 C 4.632812 -10.675781 4.773438 -10.609375 4.890625 -10.515625 C 5.003906 -10.421875 5.0625 -10.289062 5.0625 -10.125 C 5.0625 -9.957031 5.003906 -9.820312 4.890625 -9.71875 C 4.773438 -9.625 4.644531 -9.578125 4.5 -9.578125 C 4.363281 -9.578125 4.226562 -9.59375 4.09375 -9.625 C 3.96875 -9.65625 3.800781 -9.671875 3.59375 -9.671875 C 3.15625 -9.671875 2.820312 -9.515625 2.59375 -9.203125 C 2.375 -8.898438 2.265625 -8.535156 2.265625 -8.109375 L 2.265625 -7.1875 L 3.8125 -7.1875 C 3.957031 -7.1875 4.082031 -7.132812 4.1875 -7.03125 C 4.289062 -6.925781 4.34375 -6.796875 4.34375 -6.640625 C 4.34375 -6.484375 4.289062 -6.351562 4.1875 -6.25 C 4.082031 -6.144531 3.957031 -6.09375 3.8125 -6.09375 L 2.265625 -6.09375 L 2.265625 -0.484375 C 2.265625 -0.328125 2.210938 -0.191406 2.109375 -0.078125 C 2.015625 0.0234375 1.875 0.078125 1.6875 0.078125 C 1.5 0.078125 1.351562 0.0234375 1.25 -0.078125 C 1.15625 -0.191406 1.109375 -0.328125 1.109375 -0.484375 Z M 1.109375 -0.484375 "/></g></g></g><g fill="#000000" fill-opacity="1"><g transform="translate(139.029951, 12.172734)"><g><path d="M 3.453125 -0.90625 C 3.773438 -0.90625 4.046875 -0.941406 4.265625 -1.015625 C 4.492188 -1.097656 4.738281 -1.203125 5 -1.328125 C 5.019531 -1.335938 5.046875 -1.347656 5.078125 -1.359375 C 5.117188 -1.367188 5.164062 -1.375 5.21875 -1.375 C 5.363281 -1.375 5.484375 -1.320312 5.578125 -1.21875 C 5.679688 -1.113281 5.734375 -0.988281 5.734375 -0.84375 C 5.734375 -0.664062 5.644531 -0.515625 5.46875 -0.390625 C 5.300781 -0.265625 5.085938 -0.164062 4.828125 -0.09375 C 4.566406 -0.0195312 4.300781 0.03125 4.03125 0.0625 C 3.757812 0.101562 3.523438 0.125 3.328125 0.125 C 2.484375 0.125 1.828125 -0.113281 1.359375 -0.59375 C 0.898438 -1.070312 0.671875 -1.660156 0.671875 -2.359375 L 0.671875 -5.140625 C 0.671875 -5.847656 0.898438 -6.441406 1.359375 -6.921875 C 1.828125 -7.410156 2.503906 -7.65625 3.390625 -7.65625 C 4.210938 -7.65625 4.828125 -7.429688 5.234375 -6.984375 C 5.648438 -6.546875 5.859375 -5.960938 5.859375 -5.234375 C 5.859375 -4.546875 5.660156 -4.003906 5.265625 -3.609375 C 4.867188 -3.210938 4.226562 -3.015625 3.34375 -3.015625 C 3.125 -3.015625 2.878906 -3.023438 2.609375 -3.046875 C 2.347656 -3.078125 2.085938 -3.113281 1.828125 -3.15625 L 1.828125 -2.28125 C 1.828125 -1.863281 1.960938 -1.53125 2.234375 -1.28125 C 2.515625 -1.03125 2.921875 -0.90625 3.453125 -0.90625 Z M 4.71875 -5.234375 C 4.71875 -5.710938 4.597656 -6.054688 4.359375 -6.265625 C 4.128906 -6.484375 3.796875 -6.59375 3.359375 -6.59375 C 2.878906 -6.59375 2.503906 -6.46875 2.234375 -6.21875 C 1.960938 -5.976562 1.828125 -5.648438 1.828125 -5.234375 L 1.828125 -4.109375 C 2.109375 -4.066406 2.398438 -4.035156 2.703125 -4.015625 C 3.015625 -4.003906 3.242188 -4 3.390625 -4 C 3.765625 -4 4.046875 -4.054688 4.234375 -4.171875 C 4.429688 -4.296875 4.5625 -4.453125 4.625 -4.640625 C 4.6875 -4.828125 4.71875 -5.023438 4.71875 -5.234375 Z M 4.71875 -5.234375 "/></g></g></g></g></g><g clip-path="url(#089a78f745)"><g clip-path="url(#e2d2a0df3f)"><g clip-path="url(#ec0fe7d672)"><g transform="matrix(1, 0, 0, 1, 310, 185)"><g clip-path="url(#959459c344)"><g clip-path="url(#3565d279f4)"><g clip-path="url(#d032486f9e)"><g clip-path="url(#d85b2c68e1)"><path fill="#ffffff" d="M -2.066406 6.550781 L 11.125 -2.042969 L 19.71875 11.148438 L 6.527344 19.742188 Z M -2.066406 6.550781 " fill-opacity="1" fill-rule="nonzero"/></g></g></g></g></g></g></g></g><g clip-path="url(#994b4ff0b8)"><g clip-path="url(#03e5b5c604)"><g clip-path="url(#fde73a316c)"><g transform="matrix(1, 0, 0, 1, 316, 199)"><g clip-path="url(#bc600ad5b7)"><g clip-path="url(#d5cba53eba)"><g clip-path="url(#997be40616)"><g clip-path="url(#22d1be0401)"><path fill="#ffffff" d="M -0.5 1.886719 L 3.355469 -0.625 L 5.867188 3.230469 L 2.011719 5.742188 Z M -0.5 1.886719 " fill-opacity="1" fill-rule="nonzero"/></g></g></g></g></g></g></g></g></svg>