<svg xmlns="http://www.w3.org/2000/svg" xmlns:xlink="http://www.w3.org/1999/xlink" width="100" zoomAndPan="magnify" viewBox="0 0 75 30.000001" height="40" preserveAspectRatio="xMidYMid meet" version="1.0"><defs><g/><clipPath id="436cea8cea"><path d="M 0.679688 3 L 47 3 L 47 15 L 0.679688 15 Z M 0.679688 3 " clip-rule="nonzero"/></clipPath><clipPath id="dc21b312f7"><path d="M 1 0.453125 L 8 0.453125 L 8 9 L 1 9 Z M 1 0.453125 " clip-rule="nonzero"/></clipPath><clipPath id="7f1b9b18fa"><path d="M 7 0.453125 L 13 0.453125 L 13 9 L 7 9 Z M 7 0.453125 " clip-rule="nonzero"/></clipPath><clipPath id="61f957c39e"><path d="M 23 0.453125 L 30 0.453125 L 30 10 L 23 10 Z M 23 0.453125 " clip-rule="nonzero"/></clipPath><clipPath id="f43e6b06a8"><path d="M 29 0.453125 L 34 0.453125 L 34 9 L 29 9 Z M 29 0.453125 " clip-rule="nonzero"/></clipPath><clipPath id="3e28245f6a"><path d="M 40 3 L 46.433594 3 L 46.433594 11.832031 L 40 11.832031 Z M 40 3 " clip-rule="nonzero"/></clipPath><clipPath id="a89c486442"><rect x="0" width="47" y="0" height="12"/></clipPath><clipPath id="f7df9e5eb0"><path d="M 32.136719 0.203125 L 35.453125 0.203125 L 35.453125 3.519531 L 32.136719 3.519531 Z M 32.136719 0.203125 " clip-rule="nonzero"/></clipPath><clipPath id="aa06c599ce"><path d="M 33.796875 0.203125 C 32.878906 0.203125 32.136719 0.945312 32.136719 1.859375 C 32.136719 2.777344 32.878906 3.519531 33.796875 3.519531 C 34.710938 3.519531 35.453125 2.777344 35.453125 1.859375 C 35.453125 0.945312 34.710938 0.203125 33.796875 0.203125 Z M 33.796875 0.203125 " clip-rule="nonzero"/></clipPath><clipPath id="3f8149c983"><path d="M 0.136719 0.203125 L 3.453125 0.203125 L 3.453125 3.519531 L 0.136719 3.519531 Z M 0.136719 0.203125 " clip-rule="nonzero"/></clipPath><clipPath id="a0c39be756"><path d="M 1.796875 0.203125 C 0.878906 0.203125 0.136719 0.945312 0.136719 1.859375 C 0.136719 2.777344 0.878906 3.519531 1.796875 3.519531 C 2.710938 3.519531 3.453125 2.777344 3.453125 1.859375 C 3.453125 0.945312 2.710938 0.203125 1.796875 0.203125 Z M 1.796875 0.203125 " clip-rule="nonzero"/></clipPath><clipPath id="ae21e3bcf0"><rect x="0" width="4" y="0" height="4"/></clipPath><clipPath id="e81693c33a"><path d="M 42 4 L 46 4 L 46 7 L 42 7 Z M 42 4 " clip-rule="nonzero"/></clipPath><clipPath id="79fc38a155"><path d="M 42.269531 5.414062 L 44.222656 4.140625 L 45.496094 6.09375 L 43.542969 7.367188 Z M 42.269531 5.414062 " clip-rule="nonzero"/></clipPath><clipPath id="97071f2752"><path d="M 43.246094 4.777344 C 42.707031 5.128906 42.554688 5.851562 42.90625 6.390625 C 43.257812 6.929688 43.980469 7.082031 44.519531 6.730469 C 45.058594 6.378906 45.210938 5.65625 44.859375 5.117188 C 44.507812 4.578125 43.785156 4.425781 43.246094 4.777344 Z M 43.246094 4.777344 " clip-rule="nonzero"/></clipPath><clipPath id="750549120f"><path d="M 0.488281 0.378906 L 3.273438 0.378906 L 3.273438 3 L 0.488281 3 Z M 0.488281 0.378906 " clip-rule="nonzero"/></clipPath><clipPath id="73dc2462ab"><path d="M 0.269531 1.414062 L 2.222656 0.140625 L 3.496094 2.09375 L 1.542969 3.367188 Z M 0.269531 1.414062 " clip-rule="nonzero"/></clipPath><clipPath id="85d074f798"><path d="M 1.246094 0.777344 C 0.707031 1.128906 0.554688 1.851562 0.90625 2.390625 C 1.257812 2.929688 1.980469 3.082031 2.519531 2.730469 C 3.058594 2.378906 3.210938 1.65625 2.859375 1.117188 C 2.507812 0.578125 1.785156 0.425781 1.246094 0.777344 Z M 1.246094 0.777344 " clip-rule="nonzero"/></clipPath><clipPath id="711c1ecba1"><rect x="0" width="4" y="0" height="3"/></clipPath><clipPath id="cb23abeb09"><path d="M 29.976562 2.585938 L 33.117188 2.585938 L 33.117188 5.726562 L 29.976562 5.726562 Z M 29.976562 2.585938 " clip-rule="nonzero"/></clipPath><clipPath id="117435ca5b"><path d="M 46.003906 12 L 48 12 L 48 14 L 46.003906 14 Z M 46.003906 12 " clip-rule="nonzero"/></clipPath><clipPath id="b659e9c3f8"><path d="M 48 12 L 49.144531 12 L 49.144531 14 L 48 14 Z M 48 12 " clip-rule="nonzero"/></clipPath><clipPath id="f281bccdc5"><path d="M 47 14 L 49 14 L 49 15.886719 L 47 15.886719 Z M 47 14 " clip-rule="nonzero"/></clipPath><clipPath id="c6df95af85"><path d="M 0.132812 1 L 2 1 L 2 3 L 0.132812 3 Z M 0.132812 1 " clip-rule="nonzero"/></clipPath><clipPath id="fc97e2dc26"><rect x="0" width="26" y="0" height="4"/></clipPath><clipPath id="37d004d103"><path d="M 44 5 L 47 5 L 47 9 L 44 9 Z M 44 5 " clip-rule="nonzero"/></clipPath><clipPath id="383478a751"><path d="M 43.675781 6.765625 L 45.882812 5.328125 L 47.324219 7.539062 L 45.113281 8.976562 Z M 43.675781 6.765625 " clip-rule="nonzero"/></clipPath><clipPath id="e8a6fb72b0"><path d="M 44.777344 6.046875 C 44.167969 6.445312 43.996094 7.261719 44.394531 7.871094 C 44.792969 8.480469 45.609375 8.65625 46.21875 8.257812 C 46.828125 7.859375 47 7.042969 46.605469 6.433594 C 46.207031 5.820312 45.390625 5.648438 44.777344 6.046875 Z M 44.777344 6.046875 " clip-rule="nonzero"/></clipPath><clipPath id="b582b52a23"><path d="M 0 0.542969 L 3 0.542969 L 3 3.792969 L 0 3.792969 Z M 0 0.542969 " clip-rule="nonzero"/></clipPath><clipPath id="386583f40e"><path d="M -0.324219 1.765625 L 1.882812 0.328125 L 3.324219 2.539062 L 1.113281 3.976562 Z M -0.324219 1.765625 " clip-rule="nonzero"/></clipPath><clipPath id="30efe4995a"><path d="M 0.777344 1.046875 C 0.167969 1.445312 -0.00390625 2.261719 0.394531 2.871094 C 0.792969 3.480469 1.609375 3.65625 2.21875 3.257812 C 2.828125 2.859375 3 2.042969 2.605469 1.433594 C 2.207031 0.820312 1.390625 0.648438 0.777344 1.046875 Z M 0.777344 1.046875 " clip-rule="nonzero"/></clipPath><clipPath id="4e49a952b9"><rect x="0" width="3" y="0" height="4"/></clipPath><clipPath id="43a0eed7ea"><path d="M 45 8 L 46 8 L 46 9 L 45 9 Z M 45 8 " clip-rule="nonzero"/></clipPath><clipPath id="903b7c0575"><path d="M 44.941406 8.332031 L 45.585938 7.910156 L 46.007812 8.558594 L 45.363281 8.976562 Z M 44.941406 8.332031 " clip-rule="nonzero"/></clipPath><clipPath id="4ef6838559"><path d="M 45.265625 8.121094 C 45.085938 8.238281 45.035156 8.476562 45.152344 8.65625 C 45.265625 8.832031 45.507812 8.882812 45.683594 8.765625 C 45.863281 8.652344 45.914062 8.414062 45.796875 8.234375 C 45.679688 8.054688 45.441406 8.003906 45.265625 8.121094 Z M 45.265625 8.121094 " clip-rule="nonzero"/></clipPath><clipPath id="67d2f3fe9a"><path d="M 0 0 L 0.972656 0 L 0.972656 1 L 0 1 Z M 0 0 " clip-rule="nonzero"/></clipPath><clipPath id="5482d4e628"><path d="M -0.0585938 0.332031 L 0.585938 -0.0898438 L 1.007812 0.558594 L 0.363281 0.976562 Z M -0.0585938 0.332031 " clip-rule="nonzero"/></clipPath><clipPath id="cab812e9ed"><path d="M 0.265625 0.121094 C 0.0859375 0.238281 0.0351562 0.476562 0.152344 0.65625 C 0.265625 0.832031 0.507812 0.882812 0.683594 0.765625 C 0.863281 0.652344 0.914062 0.414062 0.796875 0.234375 C 0.679688 0.0546875 0.441406 0.00390625 0.265625 0.121094 Z M 0.265625 0.121094 " clip-rule="nonzero"/></clipPath><clipPath id="2feaee232d"><rect x="0" width="1" y="0" height="1"/></clipPath><clipPath id="130c1fc37d"><rect x="0" width="50" y="0" height="16"/></clipPath></defs><g transform="matrix(1, 0, 0, 1, 14, 7)"><g clip-path="url(#130c1fc37d)"><g clip-path="url(#436cea8cea)"><g transform="matrix(1, 0, 0, 1, 0, 3)"><g clip-path="url(#a89c486442)"><g clip-path="url(#dc21b312f7)"><g fill="#ffffff" fill-opacity="1"><g transform="translate(0.918198, 8.959949)"><g><path d="M 0.640625 -4.28125 C 0.640625 -4.675781 0.625 -5.019531 0.59375 -5.3125 C 0.570312 -5.601562 0.539062 -5.851562 0.5 -6.0625 C 0.457031 -6.269531 0.414062 -6.453125 0.375 -6.609375 C 0.332031 -6.765625 0.289062 -6.90625 0.25 -7.03125 C 0.207031 -7.15625 0.171875 -7.273438 0.140625 -7.390625 C 0.117188 -7.515625 0.109375 -7.65625 0.109375 -7.8125 C 0.109375 -7.945312 0.140625 -8.050781 0.203125 -8.125 C 0.273438 -8.195312 0.359375 -8.242188 0.453125 -8.265625 C 0.554688 -8.296875 0.65625 -8.3125 0.75 -8.3125 C 0.851562 -8.320312 0.9375 -8.328125 1 -8.328125 L 5.65625 -8.328125 C 5.832031 -8.328125 5.972656 -8.269531 6.078125 -8.15625 C 6.179688 -8.050781 6.234375 -7.914062 6.234375 -7.75 L 6.234375 -6.09375 C 6.234375 -6 6.226562 -5.898438 6.21875 -5.796875 C 6.207031 -5.691406 6.171875 -5.601562 6.109375 -5.53125 C 6.054688 -5.46875 5.960938 -5.4375 5.828125 -5.4375 C 5.679688 -5.4375 5.539062 -5.476562 5.40625 -5.5625 C 5.28125 -5.644531 5.144531 -5.75 5 -5.875 C 4.851562 -6.007812 4.691406 -6.140625 4.515625 -6.265625 C 4.335938 -6.390625 4.140625 -6.492188 3.921875 -6.578125 C 3.710938 -6.671875 3.460938 -6.71875 3.171875 -6.71875 C 3.066406 -6.71875 2.988281 -6.679688 2.9375 -6.609375 C 2.894531 -6.546875 2.867188 -6.453125 2.859375 -6.328125 C 2.847656 -6.210938 2.84375 -6.078125 2.84375 -5.921875 C 2.84375 -5.703125 2.859375 -5.523438 2.890625 -5.390625 C 2.921875 -5.253906 2.992188 -5.15625 3.109375 -5.09375 C 3.222656 -5.039062 3.394531 -5.019531 3.625 -5.03125 C 3.789062 -5.039062 3.9375 -5.054688 4.0625 -5.078125 C 4.1875 -5.109375 4.300781 -5.132812 4.40625 -5.15625 C 4.519531 -5.1875 4.640625 -5.203125 4.765625 -5.203125 C 4.910156 -5.203125 5.015625 -5.148438 5.078125 -5.046875 C 5.140625 -4.941406 5.171875 -4.835938 5.171875 -4.734375 L 5.171875 -3.5625 C 5.171875 -3.457031 5.140625 -3.351562 5.078125 -3.25 C 5.015625 -3.144531 4.910156 -3.09375 4.765625 -3.09375 C 4.640625 -3.09375 4.519531 -3.101562 4.40625 -3.125 C 4.300781 -3.15625 4.1875 -3.179688 4.0625 -3.203125 C 3.9375 -3.234375 3.789062 -3.253906 3.625 -3.265625 C 3.40625 -3.273438 3.238281 -3.25 3.125 -3.1875 C 3.007812 -3.132812 2.929688 -3.046875 2.890625 -2.921875 C 2.859375 -2.796875 2.84375 -2.625 2.84375 -2.40625 C 2.84375 -2.25 2.847656 -2.109375 2.859375 -1.984375 C 2.867188 -1.867188 2.894531 -1.773438 2.9375 -1.703125 C 2.988281 -1.640625 3.066406 -1.609375 3.171875 -1.609375 C 3.460938 -1.609375 3.710938 -1.648438 3.921875 -1.734375 C 4.140625 -1.828125 4.335938 -1.9375 4.515625 -2.0625 C 4.691406 -2.1875 4.851562 -2.3125 5 -2.4375 C 5.144531 -2.5625 5.28125 -2.664062 5.40625 -2.75 C 5.539062 -2.84375 5.679688 -2.890625 5.828125 -2.890625 C 5.960938 -2.890625 6.054688 -2.851562 6.109375 -2.78125 C 6.171875 -2.71875 6.207031 -2.632812 6.21875 -2.53125 C 6.226562 -2.425781 6.234375 -2.320312 6.234375 -2.21875 L 6.234375 -0.578125 C 6.234375 -0.398438 6.179688 -0.257812 6.078125 -0.15625 C 5.972656 -0.0507812 5.832031 0 5.65625 0 L 0.90625 0 C 0.84375 0 0.765625 0 0.671875 0 C 0.585938 0 0.5 -0.015625 0.40625 -0.046875 C 0.320312 -0.078125 0.25 -0.128906 0.1875 -0.203125 C 0.132812 -0.273438 0.109375 -0.378906 0.109375 -0.515625 C 0.109375 -0.710938 0.125 -0.890625 0.15625 -1.046875 C 0.195312 -1.210938 0.242188 -1.382812 0.296875 -1.5625 C 0.347656 -1.75 0.398438 -1.957031 0.453125 -2.1875 C 0.503906 -2.425781 0.546875 -2.710938 0.578125 -3.046875 C 0.617188 -3.390625 0.640625 -3.800781 0.640625 -4.28125 Z M 0.640625 -4.28125 "/></g></g></g></g><g clip-path="url(#7f1b9b18fa)"><g fill="#ffffff" fill-opacity="1"><g transform="translate(7.320911, 8.959949)"><g><path d="M 0.375 -5.140625 C 0.28125 -5.140625 0.203125 -5.164062 0.140625 -5.21875 C 0.0859375 -5.28125 0.0625 -5.359375 0.0625 -5.453125 L 0.0625 -5.46875 C 0.0625 -5.5625 0.0859375 -5.632812 0.140625 -5.6875 C 0.203125 -5.75 0.28125 -5.78125 0.375 -5.78125 L 0.65625 -5.78125 L 0.65625 -6.421875 C 0.65625 -6.671875 0.695312 -6.914062 0.78125 -7.15625 C 0.875 -7.394531 1.003906 -7.609375 1.171875 -7.796875 C 1.347656 -7.984375 1.566406 -8.128906 1.828125 -8.234375 C 2.085938 -8.347656 2.390625 -8.40625 2.734375 -8.40625 C 2.972656 -8.40625 3.210938 -8.375 3.453125 -8.3125 C 3.703125 -8.25 3.925781 -8.160156 4.125 -8.046875 C 4.332031 -7.929688 4.5 -7.785156 4.625 -7.609375 C 4.75 -7.441406 4.8125 -7.253906 4.8125 -7.046875 C 4.8125 -6.847656 4.753906 -6.671875 4.640625 -6.515625 C 4.523438 -6.367188 4.378906 -6.253906 4.203125 -6.171875 C 4.023438 -6.085938 3.835938 -6.046875 3.640625 -6.046875 C 3.535156 -6.046875 3.445312 -6.070312 3.375 -6.125 C 3.300781 -6.175781 3.242188 -6.242188 3.203125 -6.328125 C 3.160156 -6.410156 3.125 -6.492188 3.09375 -6.578125 C 3.0625 -6.671875 3.03125 -6.75 3 -6.8125 C 2.925781 -6.96875 2.832031 -7.097656 2.71875 -7.203125 C 2.613281 -7.316406 2.5 -7.375 2.375 -7.375 C 2.28125 -7.375 2.203125 -7.335938 2.140625 -7.265625 C 2.085938 -7.191406 2.0625 -7.101562 2.0625 -7 C 2.0625 -6.894531 2.09375 -6.773438 2.15625 -6.640625 C 2.21875 -6.515625 2.289062 -6.378906 2.375 -6.234375 C 2.46875 -6.097656 2.550781 -5.945312 2.625 -5.78125 L 3.328125 -5.78125 C 3.421875 -5.78125 3.492188 -5.75 3.546875 -5.6875 C 3.609375 -5.632812 3.640625 -5.5625 3.640625 -5.46875 L 3.640625 -5.453125 C 3.640625 -5.359375 3.609375 -5.28125 3.546875 -5.21875 C 3.492188 -5.164062 3.421875 -5.140625 3.328125 -5.140625 L 2.875 -5.140625 C 2.875 -5.097656 2.875 -5.0625 2.875 -5.03125 C 2.875 -5 2.875 -4.960938 2.875 -4.921875 C 2.875 -4.921875 2.875 -4.859375 2.875 -4.734375 C 2.875 -4.609375 2.875 -4.457031 2.875 -4.28125 C 2.875 -3.78125 2.882812 -3.359375 2.90625 -3.015625 C 2.925781 -2.671875 2.957031 -2.382812 3 -2.15625 C 3.039062 -1.9375 3.082031 -1.753906 3.125 -1.609375 C 3.175781 -1.460938 3.21875 -1.332031 3.25 -1.21875 C 3.289062 -1.113281 3.320312 -1.007812 3.34375 -0.90625 C 3.375 -0.800781 3.390625 -0.671875 3.390625 -0.515625 C 3.390625 -0.378906 3.351562 -0.273438 3.28125 -0.203125 C 3.21875 -0.128906 3.132812 -0.078125 3.03125 -0.046875 C 2.9375 -0.015625 2.84375 0 2.75 0 C 2.65625 0 2.578125 0 2.515625 0 L 1.015625 0 C 0.953125 0 0.875 0 0.78125 0 C 0.6875 0 0.585938 -0.015625 0.484375 -0.046875 C 0.390625 -0.078125 0.304688 -0.128906 0.234375 -0.203125 C 0.171875 -0.273438 0.140625 -0.378906 0.140625 -0.515625 C 0.140625 -0.671875 0.148438 -0.800781 0.171875 -0.90625 C 0.203125 -1.007812 0.234375 -1.113281 0.265625 -1.21875 C 0.304688 -1.332031 0.347656 -1.460938 0.390625 -1.609375 C 0.441406 -1.753906 0.488281 -1.9375 0.53125 -2.15625 C 0.570312 -2.382812 0.601562 -2.671875 0.625 -3.015625 C 0.65625 -3.359375 0.671875 -3.78125 0.671875 -4.28125 L 0.65625 -5.140625 Z M 0.375 -5.140625 "/></g></g></g></g><g fill="#ffffff" fill-opacity="1"><g transform="translate(12.186511, 8.959949)"><g><path d="M 2.890625 0.09375 C 2.304688 0.09375 1.8125 -0.03125 1.40625 -0.28125 C 1 -0.53125 0.6875 -0.878906 0.46875 -1.328125 C 0.25 -1.773438 0.140625 -2.296875 0.140625 -2.890625 C 0.140625 -3.484375 0.25 -4.003906 0.46875 -4.453125 C 0.6875 -4.898438 1 -5.25 1.40625 -5.5 C 1.8125 -5.75 2.304688 -5.875 2.890625 -5.875 C 3.460938 -5.875 3.953125 -5.75 4.359375 -5.5 C 4.773438 -5.25 5.085938 -4.898438 5.296875 -4.453125 C 5.515625 -4.003906 5.625 -3.484375 5.625 -2.890625 C 5.625 -2.296875 5.515625 -1.773438 5.296875 -1.328125 C 5.085938 -0.878906 4.773438 -0.53125 4.359375 -0.28125 C 3.953125 -0.03125 3.460938 0.09375 2.890625 0.09375 Z M 2.375 -2.890625 C 2.375 -2.453125 2.421875 -2.097656 2.515625 -1.828125 C 2.609375 -1.566406 2.734375 -1.4375 2.890625 -1.4375 C 3.035156 -1.4375 3.15625 -1.566406 3.25 -1.828125 C 3.351562 -2.097656 3.40625 -2.453125 3.40625 -2.890625 C 3.40625 -3.316406 3.351562 -3.660156 3.25 -3.921875 C 3.15625 -4.191406 3.035156 -4.328125 2.890625 -4.328125 C 2.734375 -4.328125 2.609375 -4.191406 2.515625 -3.921875 C 2.421875 -3.660156 2.375 -3.316406 2.375 -2.890625 Z M 2.375 -2.890625 "/></g></g></g><g fill="#ffffff" fill-opacity="1"><g transform="translate(17.953575, 8.959949)"><g><path d="M 2.890625 0.09375 C 2.304688 0.09375 1.8125 -0.03125 1.40625 -0.28125 C 1 -0.53125 0.6875 -0.878906 0.46875 -1.328125 C 0.25 -1.773438 0.140625 -2.296875 0.140625 -2.890625 C 0.140625 -3.484375 0.25 -4.003906 0.46875 -4.453125 C 0.6875 -4.898438 1 -5.25 1.40625 -5.5 C 1.8125 -5.75 2.304688 -5.875 2.890625 -5.875 C 3.460938 -5.875 3.953125 -5.75 4.359375 -5.5 C 4.773438 -5.25 5.085938 -4.898438 5.296875 -4.453125 C 5.515625 -4.003906 5.625 -3.484375 5.625 -2.890625 C 5.625 -2.296875 5.515625 -1.773438 5.296875 -1.328125 C 5.085938 -0.878906 4.773438 -0.53125 4.359375 -0.28125 C 3.953125 -0.03125 3.460938 0.09375 2.890625 0.09375 Z M 2.375 -2.890625 C 2.375 -2.453125 2.421875 -2.097656 2.515625 -1.828125 C 2.609375 -1.566406 2.734375 -1.4375 2.890625 -1.4375 C 3.035156 -1.4375 3.15625 -1.566406 3.25 -1.828125 C 3.351562 -2.097656 3.40625 -2.453125 3.40625 -2.890625 C 3.40625 -3.316406 3.351562 -3.660156 3.25 -3.921875 C 3.15625 -4.191406 3.035156 -4.328125 2.890625 -4.328125 C 2.734375 -4.328125 2.609375 -4.191406 2.515625 -3.921875 C 2.421875 -3.660156 2.375 -3.316406 2.375 -2.890625 Z M 2.375 -2.890625 "/></g></g></g><g clip-path="url(#61f957c39e)"><g fill="#ffffff" fill-opacity="1"><g transform="translate(23.72064, 8.959949)"><g><path d="M 2.3125 0.09375 C 1.875 0.09375 1.492188 -0.0195312 1.171875 -0.25 C 0.847656 -0.476562 0.59375 -0.816406 0.40625 -1.265625 C 0.226562 -1.710938 0.140625 -2.253906 0.140625 -2.890625 C 0.140625 -3.878906 0.300781 -4.625 0.625 -5.125 C 0.945312 -5.625 1.382812 -5.875 1.9375 -5.875 C 2.15625 -5.875 2.347656 -5.835938 2.515625 -5.765625 C 2.679688 -5.703125 2.816406 -5.628906 2.921875 -5.546875 C 3.035156 -5.460938 3.125 -5.382812 3.1875 -5.3125 C 3.257812 -5.25 3.3125 -5.21875 3.34375 -5.21875 C 3.375 -5.21875 3.390625 -5.234375 3.390625 -5.265625 C 3.398438 -5.296875 3.40625 -5.363281 3.40625 -5.46875 C 3.40625 -5.632812 3.378906 -5.8125 3.328125 -6 C 3.273438 -6.1875 3.210938 -6.378906 3.140625 -6.578125 C 3.078125 -6.773438 3.019531 -6.972656 2.96875 -7.171875 C 2.925781 -7.378906 2.90625 -7.59375 2.90625 -7.8125 C 2.90625 -7.945312 2.9375 -8.050781 3 -8.125 C 3.070312 -8.195312 3.15625 -8.242188 3.25 -8.265625 C 3.351562 -8.296875 3.453125 -8.3125 3.546875 -8.3125 C 3.640625 -8.320312 3.71875 -8.328125 3.78125 -8.328125 L 5.15625 -8.328125 C 5.21875 -8.328125 5.296875 -8.320312 5.390625 -8.3125 C 5.484375 -8.3125 5.578125 -8.296875 5.671875 -8.265625 C 5.773438 -8.242188 5.859375 -8.195312 5.921875 -8.125 C 5.992188 -8.050781 6.03125 -7.945312 6.03125 -7.8125 C 6.03125 -7.582031 6.003906 -7.34375 5.953125 -7.09375 C 5.898438 -6.84375 5.835938 -6.578125 5.765625 -6.296875 C 5.703125 -6.015625 5.644531 -5.707031 5.59375 -5.375 C 5.539062 -5.039062 5.515625 -4.675781 5.515625 -4.28125 C 5.515625 -3.78125 5.523438 -3.359375 5.546875 -3.015625 C 5.566406 -2.671875 5.597656 -2.382812 5.640625 -2.15625 C 5.679688 -1.9375 5.722656 -1.753906 5.765625 -1.609375 C 5.816406 -1.460938 5.859375 -1.332031 5.890625 -1.21875 C 5.929688 -1.113281 5.960938 -1.007812 5.984375 -0.90625 C 6.015625 -0.800781 6.03125 -0.671875 6.03125 -0.515625 C 6.03125 -0.378906 6 -0.273438 5.9375 -0.203125 C 5.875 -0.128906 5.796875 -0.078125 5.703125 -0.046875 C 5.609375 -0.015625 5.519531 0 5.4375 0 C 5.351562 0 5.289062 0 5.25 0 C 5.101562 0 4.972656 -0.0078125 4.859375 -0.03125 C 4.742188 -0.0625 4.625 -0.0859375 4.5 -0.109375 C 4.382812 -0.140625 4.242188 -0.15625 4.078125 -0.15625 C 3.898438 -0.15625 3.742188 -0.140625 3.609375 -0.109375 C 3.484375 -0.0859375 3.359375 -0.0625 3.234375 -0.03125 C 3.117188 0 2.988281 0.0234375 2.84375 0.046875 C 2.695312 0.078125 2.519531 0.09375 2.3125 0.09375 Z M 2.375 -2.875 C 2.375 -2.445312 2.421875 -2.097656 2.515625 -1.828125 C 2.609375 -1.566406 2.734375 -1.4375 2.890625 -1.4375 C 3.035156 -1.4375 3.15625 -1.566406 3.25 -1.828125 C 3.351562 -2.097656 3.40625 -2.445312 3.40625 -2.875 C 3.40625 -3.3125 3.351562 -3.660156 3.25 -3.921875 C 3.15625 -4.191406 3.035156 -4.328125 2.890625 -4.328125 C 2.734375 -4.328125 2.609375 -4.191406 2.515625 -3.921875 C 2.421875 -3.660156 2.375 -3.3125 2.375 -2.875 Z M 2.375 -2.875 "/></g></g></g></g><g clip-path="url(#f43e6b06a8)"><g fill="#ffffff" fill-opacity="1"><g transform="translate(29.811307, 8.959949)"><g><path d="M 0.625 -2.890625 C 0.625 -3.140625 0.601562 -3.351562 0.5625 -3.53125 C 0.53125 -3.707031 0.484375 -3.859375 0.421875 -3.984375 C 0.367188 -4.117188 0.3125 -4.234375 0.25 -4.328125 C 0.195312 -4.429688 0.148438 -4.53125 0.109375 -4.625 C 0.078125 -4.726562 0.0625 -4.84375 0.0625 -4.96875 C 0.0625 -5.101562 0.113281 -5.207031 0.21875 -5.28125 C 0.320312 -5.351562 0.457031 -5.410156 0.625 -5.453125 C 0.789062 -5.503906 0.960938 -5.554688 1.140625 -5.609375 C 1.210938 -5.628906 1.300781 -5.648438 1.40625 -5.671875 C 1.507812 -5.703125 1.613281 -5.734375 1.71875 -5.765625 C 1.832031 -5.796875 1.929688 -5.820312 2.015625 -5.84375 C 2.109375 -5.863281 2.171875 -5.875 2.203125 -5.875 C 2.304688 -5.875 2.40625 -5.835938 2.5 -5.765625 C 2.59375 -5.691406 2.671875 -5.566406 2.734375 -5.390625 C 2.796875 -5.222656 2.828125 -4.988281 2.828125 -4.6875 C 2.828125 -4.476562 2.828125 -4.257812 2.828125 -4.03125 C 2.828125 -3.8125 2.828125 -3.601562 2.828125 -3.40625 C 2.828125 -3.207031 2.828125 -3.035156 2.828125 -2.890625 C 2.828125 -2.640625 2.851562 -2.398438 2.90625 -2.171875 C 2.957031 -1.941406 3.019531 -1.722656 3.09375 -1.515625 C 3.164062 -1.316406 3.226562 -1.128906 3.28125 -0.953125 C 3.332031 -0.785156 3.359375 -0.640625 3.359375 -0.515625 C 3.359375 -0.378906 3.328125 -0.273438 3.265625 -0.203125 C 3.203125 -0.128906 3.128906 -0.078125 3.046875 -0.046875 C 2.960938 -0.015625 2.875 0 2.78125 0 C 2.695312 0 2.625 0 2.5625 0 L 0.890625 0 C 0.828125 0 0.75 0 0.65625 0 C 0.570312 0 0.488281 -0.015625 0.40625 -0.046875 C 0.320312 -0.078125 0.25 -0.128906 0.1875 -0.203125 C 0.132812 -0.273438 0.109375 -0.378906 0.109375 -0.515625 C 0.109375 -0.671875 0.132812 -0.832031 0.1875 -1 C 0.238281 -1.164062 0.296875 -1.34375 0.359375 -1.53125 C 0.429688 -1.726562 0.492188 -1.9375 0.546875 -2.15625 C 0.597656 -2.375 0.625 -2.617188 0.625 -2.890625 Z M 1.71875 -6.21875 C 1.644531 -6.21875 1.546875 -6.238281 1.421875 -6.28125 C 1.304688 -6.332031 1.179688 -6.398438 1.046875 -6.484375 C 0.910156 -6.578125 0.78125 -6.679688 0.65625 -6.796875 C 0.53125 -6.921875 0.425781 -7.050781 0.34375 -7.1875 C 0.257812 -7.332031 0.21875 -7.484375 0.21875 -7.640625 C 0.21875 -7.796875 0.25 -7.929688 0.3125 -8.046875 C 0.382812 -8.160156 0.472656 -8.25 0.578125 -8.3125 C 0.691406 -8.375 0.8125 -8.40625 0.9375 -8.40625 C 1.113281 -8.40625 1.265625 -8.351562 1.390625 -8.25 C 1.515625 -8.15625 1.625 -8.054688 1.71875 -7.953125 C 1.800781 -8.054688 1.90625 -8.15625 2.03125 -8.25 C 2.15625 -8.351562 2.304688 -8.40625 2.484375 -8.40625 C 2.609375 -8.40625 2.722656 -8.375 2.828125 -8.3125 C 2.941406 -8.25 3.03125 -8.160156 3.09375 -8.046875 C 3.164062 -7.929688 3.203125 -7.796875 3.203125 -7.640625 C 3.203125 -7.484375 3.160156 -7.332031 3.078125 -7.1875 C 3.003906 -7.050781 2.90625 -6.921875 2.78125 -6.796875 C 2.65625 -6.679688 2.519531 -6.578125 2.375 -6.484375 C 2.238281 -6.398438 2.109375 -6.332031 1.984375 -6.28125 C 1.867188 -6.238281 1.78125 -6.21875 1.71875 -6.21875 Z M 1.71875 -6.21875 "/></g></g></g></g><g fill="#ffffff" fill-opacity="1"><g transform="translate(33.220692, 8.959949)"><g><path d="M 0.0625 -4.96875 C 0.0625 -5.101562 0.113281 -5.207031 0.21875 -5.28125 C 0.320312 -5.351562 0.457031 -5.410156 0.625 -5.453125 C 0.789062 -5.503906 0.960938 -5.554688 1.140625 -5.609375 C 1.210938 -5.628906 1.300781 -5.648438 1.40625 -5.671875 C 1.507812 -5.703125 1.613281 -5.734375 1.71875 -5.765625 C 1.832031 -5.796875 1.929688 -5.820312 2.015625 -5.84375 C 2.109375 -5.863281 2.171875 -5.875 2.203125 -5.875 C 2.316406 -5.875 2.421875 -5.832031 2.515625 -5.75 C 2.617188 -5.664062 2.695312 -5.507812 2.75 -5.28125 C 2.757812 -5.25 2.773438 -5.222656 2.796875 -5.203125 C 2.816406 -5.191406 2.84375 -5.1875 2.875 -5.1875 C 2.914062 -5.1875 2.976562 -5.21875 3.0625 -5.28125 C 3.15625 -5.351562 3.273438 -5.429688 3.421875 -5.515625 C 3.566406 -5.609375 3.738281 -5.691406 3.9375 -5.765625 C 4.144531 -5.835938 4.375 -5.875 4.625 -5.875 C 4.976562 -5.875 5.257812 -5.796875 5.46875 -5.640625 C 5.6875 -5.484375 5.847656 -5.265625 5.953125 -4.984375 C 6.054688 -4.710938 6.109375 -4.398438 6.109375 -4.046875 L 6.109375 -2.890625 C 6.109375 -2.617188 6.132812 -2.375 6.1875 -2.15625 C 6.238281 -1.9375 6.300781 -1.726562 6.375 -1.53125 C 6.445312 -1.34375 6.507812 -1.164062 6.5625 -1 C 6.613281 -0.832031 6.640625 -0.671875 6.640625 -0.515625 C 6.640625 -0.378906 6.601562 -0.273438 6.53125 -0.203125 C 6.46875 -0.128906 6.382812 -0.078125 6.28125 -0.046875 C 6.1875 -0.015625 6.085938 0 5.984375 0 C 5.890625 0 5.816406 0 5.765625 0 L 4.671875 0 C 4.628906 0 4.5625 0 4.46875 0 C 4.382812 0 4.289062 -0.00390625 4.1875 -0.015625 C 4.09375 -0.0351562 4 -0.0625 3.90625 -0.09375 C 3.8125 -0.125 3.734375 -0.171875 3.671875 -0.234375 C 3.617188 -0.304688 3.59375 -0.398438 3.59375 -0.515625 C 3.59375 -0.773438 3.617188 -1.035156 3.671875 -1.296875 C 3.722656 -1.554688 3.773438 -1.816406 3.828125 -2.078125 C 3.890625 -2.347656 3.914062 -2.617188 3.90625 -2.890625 C 3.90625 -3.003906 3.894531 -3.128906 3.875 -3.265625 C 3.863281 -3.398438 3.835938 -3.523438 3.796875 -3.640625 C 3.765625 -3.765625 3.710938 -3.863281 3.640625 -3.9375 C 3.566406 -4.007812 3.472656 -4.046875 3.359375 -4.046875 C 3.234375 -4.046875 3.132812 -4.007812 3.0625 -3.9375 C 2.988281 -3.863281 2.929688 -3.765625 2.890625 -3.640625 C 2.859375 -3.523438 2.835938 -3.398438 2.828125 -3.265625 C 2.816406 -3.128906 2.8125 -3.003906 2.8125 -2.890625 C 2.8125 -2.671875 2.835938 -2.453125 2.890625 -2.234375 C 2.953125 -2.015625 3.015625 -1.804688 3.078125 -1.609375 C 3.148438 -1.410156 3.210938 -1.21875 3.265625 -1.03125 C 3.316406 -0.84375 3.34375 -0.671875 3.34375 -0.515625 C 3.34375 -0.398438 3.3125 -0.304688 3.25 -0.234375 C 3.195312 -0.171875 3.125 -0.125 3.03125 -0.09375 C 2.9375 -0.0625 2.835938 -0.0351562 2.734375 -0.015625 C 2.640625 -0.00390625 2.546875 0 2.453125 0 C 2.367188 0 2.304688 0 2.265625 0 L 0.984375 0 C 0.921875 0 0.835938 0 0.734375 0 C 0.640625 0 0.539062 -0.015625 0.4375 -0.046875 C 0.34375 -0.078125 0.257812 -0.128906 0.1875 -0.203125 C 0.125 -0.273438 0.09375 -0.378906 0.09375 -0.515625 C 0.09375 -0.671875 0.117188 -0.832031 0.171875 -1 C 0.222656 -1.164062 0.285156 -1.34375 0.359375 -1.53125 C 0.429688 -1.726562 0.492188 -1.9375 0.546875 -2.15625 C 0.597656 -2.375 0.625 -2.617188 0.625 -2.890625 C 0.625 -3.140625 0.601562 -3.351562 0.5625 -3.53125 C 0.53125 -3.707031 0.484375 -3.859375 0.421875 -3.984375 C 0.367188 -4.117188 0.3125 -4.234375 0.25 -4.328125 C 0.195312 -4.429688 0.148438 -4.53125 0.109375 -4.625 C 0.078125 -4.726562 0.0625 -4.84375 0.0625 -4.96875 Z M 0.0625 -4.96875 "/></g></g></g><g clip-path="url(#3e28245f6a)"><g fill="#ffffff" fill-opacity="1"><g transform="translate(39.912336, 8.959949)"><g><path d="M 2.71875 2.703125 C 2.40625 2.703125 2.097656 2.664062 1.796875 2.59375 C 1.492188 2.519531 1.21875 2.414062 0.96875 2.28125 C 0.71875 2.144531 0.515625 1.988281 0.359375 1.8125 C 0.210938 1.632812 0.140625 1.441406 0.140625 1.234375 C 0.140625 1.046875 0.179688 0.863281 0.265625 0.6875 C 0.347656 0.507812 0.457031 0.363281 0.59375 0.25 C 0.726562 0.144531 0.882812 0.09375 1.0625 0.09375 C 1.164062 0.09375 1.257812 0.109375 1.34375 0.140625 C 1.4375 0.179688 1.523438 0.226562 1.609375 0.28125 C 1.703125 0.34375 1.804688 0.40625 1.921875 0.46875 C 2.035156 0.53125 2.171875 0.582031 2.328125 0.625 C 2.484375 0.664062 2.671875 0.6875 2.890625 0.6875 C 2.984375 0.6875 3.070312 0.660156 3.15625 0.609375 C 3.25 0.554688 3.320312 0.488281 3.375 0.40625 C 3.4375 0.320312 3.46875 0.234375 3.46875 0.140625 C 3.476562 0.046875 3.445312 -0.046875 3.375 -0.140625 C 3.332031 -0.0859375 3.253906 -0.0390625 3.140625 0 C 3.035156 0.03125 2.914062 0.0507812 2.78125 0.0625 C 2.644531 0.0820312 2.519531 0.09375 2.40625 0.09375 C 2.039062 0.09375 1.71875 0.015625 1.4375 -0.140625 C 1.164062 -0.296875 0.929688 -0.507812 0.734375 -0.78125 C 0.546875 -1.0625 0.40625 -1.378906 0.3125 -1.734375 C 0.21875 -2.085938 0.171875 -2.472656 0.171875 -2.890625 C 0.171875 -3.285156 0.210938 -3.632812 0.296875 -3.9375 C 0.390625 -4.238281 0.515625 -4.492188 0.671875 -4.703125 C 0.828125 -4.921875 1 -5.097656 1.1875 -5.234375 C 1.382812 -5.367188 1.582031 -5.472656 1.78125 -5.546875 C 1.976562 -5.628906 2.164062 -5.6875 2.34375 -5.71875 C 2.519531 -5.757812 2.671875 -5.78125 2.796875 -5.78125 L 5.234375 -5.78125 C 5.296875 -5.78125 5.375 -5.773438 5.46875 -5.765625 C 5.5625 -5.765625 5.65625 -5.75 5.75 -5.71875 C 5.851562 -5.695312 5.9375 -5.648438 6 -5.578125 C 6.070312 -5.503906 6.109375 -5.398438 6.109375 -5.265625 C 6.109375 -5.128906 6.082031 -4.992188 6.03125 -4.859375 C 5.976562 -4.722656 5.914062 -4.578125 5.84375 -4.421875 C 5.769531 -4.273438 5.707031 -4.101562 5.65625 -3.90625 C 5.601562 -3.71875 5.578125 -3.492188 5.578125 -3.234375 C 5.578125 -2.898438 5.59375 -2.601562 5.625 -2.34375 C 5.65625 -2.082031 5.691406 -1.828125 5.734375 -1.578125 C 5.773438 -1.335938 5.8125 -1.082031 5.84375 -0.8125 C 5.875 -0.550781 5.890625 -0.25 5.890625 0.09375 C 5.890625 0.425781 5.828125 0.75 5.703125 1.0625 C 5.578125 1.375 5.382812 1.648438 5.125 1.890625 C 4.875 2.140625 4.546875 2.335938 4.140625 2.484375 C 3.742188 2.628906 3.269531 2.703125 2.71875 2.703125 Z M 2.375 -2.890625 C 2.375 -2.460938 2.421875 -2.113281 2.515625 -1.84375 C 2.609375 -1.570312 2.734375 -1.4375 2.890625 -1.4375 C 3.035156 -1.4375 3.15625 -1.570312 3.25 -1.84375 C 3.351562 -2.113281 3.40625 -2.460938 3.40625 -2.890625 C 3.40625 -3.328125 3.351562 -3.675781 3.25 -3.9375 C 3.15625 -4.207031 3.035156 -4.34375 2.890625 -4.34375 C 2.734375 -4.34375 2.609375 -4.207031 2.515625 -3.9375 C 2.421875 -3.675781 2.375 -3.328125 2.375 -2.890625 Z M 2.375 -2.890625 "/></g></g></g></g></g></g></g><g clip-path="url(#f7df9e5eb0)"><g clip-path="url(#aa06c599ce)"><g transform="matrix(1, 0, 0, 1, 32, 0.000000000000005329)"><g clip-path="url(#ae21e3bcf0)"><g clip-path="url(#3f8149c983)"><g clip-path="url(#a0c39be756)"><path fill="#000000" d="M 0.136719 0.203125 L 3.453125 0.203125 L 3.453125 3.519531 L 0.136719 3.519531 Z M 0.136719 0.203125 " fill-opacity="1" fill-rule="nonzero"/></g></g></g></g></g></g><g clip-path="url(#e81693c33a)"><g clip-path="url(#79fc38a155)"><g clip-path="url(#97071f2752)"><g transform="matrix(1, 0, 0, 1, 42, 4)"><g clip-path="url(#711c1ecba1)"><g clip-path="url(#750549120f)"><g clip-path="url(#73dc2462ab)"><g clip-path="url(#85d074f798)"><path fill="#000000" d="M 0.269531 1.414062 L 2.222656 0.140625 L 3.496094 2.09375 L 1.542969 3.367188 Z M 0.269531 1.414062 " fill-opacity="1" fill-rule="nonzero"/></g></g></g></g></g></g></g></g><g clip-path="url(#cb23abeb09)"><path fill="#ffffff" d="M 33.050781 4.511719 C 33.058594 4.488281 33.0625 4.460938 33.066406 4.433594 C 33.054688 4.433594 33.046875 4.433594 33.035156 4.433594 C 32.8125 4.433594 32.632812 4.253906 32.632812 4.03125 C 32.632812 4.015625 32.632812 4 32.636719 3.984375 C 32.382812 3.960938 32.183594 3.746094 32.183594 3.488281 C 32.183594 3.410156 32.199219 3.335938 32.230469 3.273438 C 32.089844 3.210938 31.992188 3.070312 31.992188 2.90625 C 31.992188 2.839844 32.007812 2.78125 32.035156 2.726562 C 31.980469 2.707031 31.925781 2.691406 31.871094 2.679688 C 31.871094 2.675781 31.871094 2.675781 31.871094 2.671875 C 31.871094 2.644531 31.855469 2.621094 31.828125 2.617188 C 31.734375 2.597656 31.636719 2.589844 31.53125 2.589844 C 31.265625 2.589844 31.003906 2.652344 30.773438 2.777344 C 30.75 2.789062 30.738281 2.816406 30.75 2.84375 C 30.75 2.847656 30.75 2.847656 30.753906 2.851562 C 30.289062 3.117188 29.976562 3.621094 29.976562 4.195312 C 29.976562 5.054688 30.671875 5.75 31.53125 5.75 C 32.28125 5.75 32.90625 5.21875 33.050781 4.511719 Z M 33.050781 4.511719 " fill-opacity="1" fill-rule="nonzero"/></g><g clip-path="url(#117435ca5b)"><path fill="#ffffff" d="M 46.003906 13.222656 C 46.003906 13.222656 46.171875 14.027344 47.378906 13.414062 C 47.378906 13.414062 47.902344 13.027344 47.199219 12.515625 C 47.199219 12.515625 46.257812 11.175781 46.003906 13.222656 Z M 46.003906 13.222656 " fill-opacity="1" fill-rule="nonzero"/></g><g clip-path="url(#b659e9c3f8)"><path fill="#ffffff" d="M 48.28125 12.839844 C 48.28125 12.839844 48.363281 13.234375 48.957031 12.933594 C 48.957031 12.933594 49.210938 12.746094 48.867188 12.492188 C 48.867188 12.492188 48.40625 11.835938 48.28125 12.839844 Z M 48.28125 12.839844 " fill-opacity="1" fill-rule="nonzero"/></g><g clip-path="url(#f281bccdc5)"><path fill="#ffffff" d="M 47.960938 14.199219 C 47.960938 14.199219 46.609375 14.640625 47.261719 15.117188 C 47.910156 15.589844 48.234375 15.757812 48.234375 15.757812 C 48.234375 15.757812 49.316406 14.253906 48.640625 14.226562 C 47.960938 14.199219 47.960938 14.199219 47.960938 14.199219 Z M 47.960938 14.199219 " fill-opacity="1" fill-rule="nonzero"/></g><g transform="matrix(1, 0, 0, 1, 11, 11)"><g clip-path="url(#fc97e2dc26)"><g clip-path="url(#c6df95af85)"><g fill="#ffffff" fill-opacity="1"><g transform="translate(0.439174, 2.910075)"><g><path d="M 0.390625 -0.921875 L 0.390625 -0.078125 C 0.390625 -0.046875 0.378906 -0.0195312 0.359375 0 C 0.347656 0.0078125 0.328125 0.015625 0.296875 0.015625 C 0.265625 0.015625 0.238281 0.0078125 0.21875 0 C 0.195312 -0.0195312 0.1875 -0.046875 0.1875 -0.078125 L 0.1875 -0.921875 C 0.1875 -0.972656 0.1875 -1.007812 0.1875 -1.03125 C 0.1875 -1.050781 0.179688 -1.0625 0.171875 -1.0625 C 0.160156 -1.070312 0.148438 -1.085938 0.140625 -1.109375 C 0.140625 -1.109375 0.132812 -1.113281 0.125 -1.125 C 0.125 -1.132812 0.125 -1.144531 0.125 -1.15625 C 0.125 -1.175781 0.132812 -1.191406 0.15625 -1.203125 C 0.175781 -1.222656 0.195312 -1.234375 0.21875 -1.234375 C 0.238281 -1.234375 0.257812 -1.226562 0.28125 -1.21875 C 0.300781 -1.207031 0.316406 -1.191406 0.328125 -1.171875 C 0.378906 -1.203125 0.4375 -1.226562 0.5 -1.25 C 0.5625 -1.269531 0.625 -1.28125 0.6875 -1.28125 C 0.820312 -1.28125 0.921875 -1.234375 0.984375 -1.140625 C 1.046875 -1.054688 1.078125 -0.945312 1.078125 -0.8125 L 1.078125 -0.078125 C 1.078125 -0.046875 1.066406 -0.0195312 1.046875 0 C 1.035156 0.0078125 1.015625 0.015625 0.984375 0.015625 C 0.953125 0.015625 0.925781 0.0078125 0.90625 0 C 0.894531 -0.0195312 0.890625 -0.046875 0.890625 -0.078125 L 0.890625 -0.8125 C 0.890625 -0.90625 0.867188 -0.976562 0.828125 -1.03125 C 0.785156 -1.082031 0.726562 -1.109375 0.65625 -1.109375 C 0.601562 -1.109375 0.550781 -1.097656 0.5 -1.078125 C 0.457031 -1.054688 0.414062 -1.03125 0.375 -1 C 0.382812 -0.96875 0.390625 -0.941406 0.390625 -0.921875 Z M 0.390625 -0.921875 "/></g></g></g></g><g fill="#ffffff" fill-opacity="1"><g transform="translate(2.454978, 2.910075)"><g><path d="M 0.578125 0.015625 C 0.472656 0.015625 0.382812 0 0.3125 -0.03125 C 0.25 -0.0703125 0.195312 -0.125 0.15625 -0.1875 C 0.125 -0.257812 0.109375 -0.335938 0.109375 -0.421875 L 0.109375 -0.84375 C 0.109375 -0.925781 0.125 -1 0.15625 -1.0625 C 0.195312 -1.132812 0.25 -1.1875 0.3125 -1.21875 C 0.382812 -1.257812 0.472656 -1.28125 0.578125 -1.28125 C 0.679688 -1.28125 0.765625 -1.257812 0.828125 -1.21875 C 0.898438 -1.1875 0.953125 -1.132812 0.984375 -1.0625 C 1.023438 -1 1.046875 -0.925781 1.046875 -0.84375 L 1.046875 -0.421875 C 1.046875 -0.335938 1.023438 -0.257812 0.984375 -0.1875 C 0.953125 -0.125 0.898438 -0.0703125 0.828125 -0.03125 C 0.765625 0 0.679688 0.015625 0.578125 0.015625 Z M 0.578125 -0.15625 C 0.671875 -0.15625 0.738281 -0.175781 0.78125 -0.21875 C 0.832031 -0.269531 0.859375 -0.335938 0.859375 -0.421875 L 0.859375 -0.84375 C 0.859375 -0.925781 0.832031 -0.988281 0.78125 -1.03125 C 0.738281 -1.082031 0.671875 -1.109375 0.578125 -1.109375 C 0.484375 -1.109375 0.414062 -1.082031 0.375 -1.03125 C 0.332031 -0.988281 0.3125 -0.925781 0.3125 -0.84375 L 0.3125 -0.421875 C 0.3125 -0.335938 0.332031 -0.269531 0.375 -0.21875 C 0.414062 -0.175781 0.484375 -0.15625 0.578125 -0.15625 Z M 0.578125 -0.15625 "/></g></g></g><g fill="#ffffff" fill-opacity="1"><g transform="translate(4.358686, 2.910075)"><g><path d="M 0.578125 0.015625 C 0.472656 0.015625 0.382812 0 0.3125 -0.03125 C 0.25 -0.0703125 0.195312 -0.125 0.15625 -0.1875 C 0.125 -0.257812 0.109375 -0.335938 0.109375 -0.421875 L 0.109375 -0.84375 C 0.109375 -0.925781 0.125 -1 0.15625 -1.0625 C 0.195312 -1.132812 0.25 -1.1875 0.3125 -1.21875 C 0.382812 -1.257812 0.472656 -1.28125 0.578125 -1.28125 C 0.679688 -1.28125 0.765625 -1.257812 0.828125 -1.21875 C 0.898438 -1.1875 0.953125 -1.132812 0.984375 -1.0625 C 1.023438 -1 1.046875 -0.925781 1.046875 -0.84375 L 1.046875 -0.421875 C 1.046875 -0.335938 1.023438 -0.257812 0.984375 -0.1875 C 0.953125 -0.125 0.898438 -0.0703125 0.828125 -0.03125 C 0.765625 0 0.679688 0.015625 0.578125 0.015625 Z M 0.578125 -0.15625 C 0.671875 -0.15625 0.738281 -0.175781 0.78125 -0.21875 C 0.832031 -0.269531 0.859375 -0.335938 0.859375 -0.421875 L 0.859375 -0.84375 C 0.859375 -0.925781 0.832031 -0.988281 0.78125 -1.03125 C 0.738281 -1.082031 0.671875 -1.109375 0.578125 -1.109375 C 0.484375 -1.109375 0.414062 -1.082031 0.375 -1.03125 C 0.332031 -0.988281 0.3125 -0.925781 0.3125 -0.84375 L 0.3125 -0.421875 C 0.3125 -0.335938 0.332031 -0.269531 0.375 -0.21875 C 0.414062 -0.175781 0.484375 -0.15625 0.578125 -0.15625 Z M 0.578125 -0.15625 "/></g></g></g><g fill="#ffffff" fill-opacity="1"><g transform="translate(6.262394, 2.910075)"><g><path d="M 0.53125 -1.28125 C 0.625 -1.28125 0.71875 -1.265625 0.8125 -1.234375 L 0.8125 -1.71875 C 0.8125 -1.738281 0.816406 -1.757812 0.828125 -1.78125 C 0.847656 -1.800781 0.875 -1.8125 0.90625 -1.8125 C 0.9375 -1.8125 0.957031 -1.800781 0.96875 -1.78125 C 0.988281 -1.757812 1 -1.738281 1 -1.71875 L 1 -0.28125 C 1 -0.25 1.003906 -0.21875 1.015625 -0.1875 C 1.023438 -0.164062 1.039062 -0.148438 1.0625 -0.140625 C 1.070312 -0.128906 1.078125 -0.117188 1.078125 -0.109375 C 1.078125 -0.109375 1.078125 -0.0976562 1.078125 -0.078125 C 1.078125 -0.0546875 1.066406 -0.0351562 1.046875 -0.015625 C 1.035156 -0.00390625 1.019531 0 1 0 C 0.96875 0 0.941406 -0.00390625 0.921875 -0.015625 C 0.898438 -0.0351562 0.878906 -0.0546875 0.859375 -0.078125 C 0.804688 -0.046875 0.75 -0.0195312 0.6875 0 C 0.632812 0.0078125 0.578125 0.015625 0.515625 0.015625 C 0.378906 0.015625 0.273438 -0.0234375 0.203125 -0.109375 C 0.140625 -0.203125 0.109375 -0.316406 0.109375 -0.453125 L 0.109375 -0.765625 C 0.109375 -0.867188 0.117188 -0.957031 0.140625 -1.03125 C 0.171875 -1.101562 0.21875 -1.160156 0.28125 -1.203125 C 0.34375 -1.253906 0.425781 -1.28125 0.53125 -1.28125 Z M 0.8125 -0.28125 L 0.8125 -1.046875 C 0.769531 -1.066406 0.722656 -1.082031 0.671875 -1.09375 C 0.617188 -1.101562 0.582031 -1.109375 0.5625 -1.109375 C 0.46875 -1.109375 0.398438 -1.078125 0.359375 -1.015625 C 0.328125 -0.960938 0.3125 -0.878906 0.3125 -0.765625 L 0.3125 -0.453125 C 0.3125 -0.253906 0.390625 -0.15625 0.546875 -0.15625 C 0.585938 -0.15625 0.628906 -0.160156 0.671875 -0.171875 C 0.722656 -0.179688 0.769531 -0.203125 0.8125 -0.234375 C 0.8125 -0.242188 0.8125 -0.25 0.8125 -0.25 C 0.8125 -0.257812 0.8125 -0.269531 0.8125 -0.28125 Z M 0.8125 -0.28125 "/></g></g></g><g fill="#ffffff" fill-opacity="1"><g transform="translate(8.225885, 2.910075)"><g><path d="M 0.1875 -0.234375 L 0.1875 -1.71875 C 0.1875 -1.738281 0.195312 -1.757812 0.21875 -1.78125 C 0.238281 -1.800781 0.257812 -1.8125 0.28125 -1.8125 C 0.3125 -1.8125 0.332031 -1.800781 0.34375 -1.78125 C 0.363281 -1.757812 0.375 -1.738281 0.375 -1.71875 L 0.375 -0.234375 C 0.375 -0.203125 0.375 -0.175781 0.375 -0.15625 C 0.382812 -0.144531 0.398438 -0.132812 0.421875 -0.125 C 0.421875 -0.113281 0.421875 -0.101562 0.421875 -0.09375 C 0.429688 -0.0820312 0.4375 -0.0703125 0.4375 -0.0625 C 0.4375 -0.0390625 0.425781 -0.0195312 0.40625 0 C 0.382812 0.0078125 0.363281 0.015625 0.34375 0.015625 C 0.320312 0.015625 0.296875 0.0078125 0.265625 0 C 0.242188 -0.0078125 0.222656 -0.03125 0.203125 -0.0625 C 0.191406 -0.101562 0.1875 -0.160156 0.1875 -0.234375 Z M 0.1875 -0.234375 "/></g></g></g><g fill="#ffffff" fill-opacity="1"><g transform="translate(9.541707, 2.910075)"><g><path d="M 0.578125 -0.15625 C 0.628906 -0.15625 0.675781 -0.160156 0.71875 -0.171875 C 0.757812 -0.179688 0.800781 -0.195312 0.84375 -0.21875 C 0.851562 -0.226562 0.863281 -0.234375 0.875 -0.234375 C 0.894531 -0.234375 0.914062 -0.222656 0.9375 -0.203125 C 0.957031 -0.179688 0.96875 -0.160156 0.96875 -0.140625 C 0.96875 -0.109375 0.953125 -0.0820312 0.921875 -0.0625 C 0.890625 -0.0390625 0.851562 -0.0234375 0.8125 -0.015625 C 0.769531 -0.00390625 0.722656 0 0.671875 0 C 0.628906 0.0078125 0.59375 0.015625 0.5625 0.015625 C 0.414062 0.015625 0.300781 -0.0195312 0.21875 -0.09375 C 0.144531 -0.175781 0.109375 -0.273438 0.109375 -0.390625 L 0.109375 -0.859375 C 0.109375 -0.984375 0.144531 -1.082031 0.21875 -1.15625 C 0.300781 -1.238281 0.414062 -1.28125 0.5625 -1.28125 C 0.707031 -1.28125 0.8125 -1.242188 0.875 -1.171875 C 0.945312 -1.097656 0.984375 -1 0.984375 -0.875 C 0.984375 -0.757812 0.945312 -0.664062 0.875 -0.59375 C 0.8125 -0.53125 0.707031 -0.5 0.5625 -0.5 C 0.519531 -0.5 0.476562 -0.5 0.4375 -0.5 C 0.394531 -0.507812 0.351562 -0.519531 0.3125 -0.53125 L 0.3125 -0.375 C 0.3125 -0.3125 0.332031 -0.257812 0.375 -0.21875 C 0.414062 -0.175781 0.484375 -0.15625 0.578125 -0.15625 Z M 0.796875 -0.875 C 0.796875 -0.957031 0.773438 -1.015625 0.734375 -1.046875 C 0.691406 -1.085938 0.632812 -1.109375 0.5625 -1.109375 C 0.476562 -1.109375 0.414062 -1.085938 0.375 -1.046875 C 0.332031 -1.003906 0.3125 -0.945312 0.3125 -0.875 L 0.3125 -0.6875 C 0.351562 -0.6875 0.398438 -0.679688 0.453125 -0.671875 C 0.503906 -0.671875 0.539062 -0.671875 0.5625 -0.671875 C 0.632812 -0.671875 0.6875 -0.679688 0.71875 -0.703125 C 0.75 -0.722656 0.769531 -0.75 0.78125 -0.78125 C 0.789062 -0.8125 0.796875 -0.84375 0.796875 -0.875 Z M 0.796875 -0.875 "/></g></g></g><g fill="#ffffff" fill-opacity="1"><g transform="translate(11.373174, 2.910075)"><g/></g></g><g fill="#ffffff" fill-opacity="1"><g transform="translate(12.86835, 2.910075)"><g><path d="M 1.484375 -0.078125 C 1.484375 -0.046875 1.472656 -0.0195312 1.453125 0 C 1.441406 0.0195312 1.421875 0.03125 1.390625 0.03125 C 1.367188 0.03125 1.351562 0.0234375 1.34375 0.015625 C 1.332031 0.00390625 1.320312 -0.0078125 1.3125 -0.03125 L 1.140625 -0.21875 C 1.078125 -0.15625 1.003906 -0.0976562 0.921875 -0.046875 C 0.847656 0.00390625 0.753906 0.03125 0.640625 0.03125 C 0.535156 0.03125 0.441406 0.0078125 0.359375 -0.03125 C 0.285156 -0.0703125 0.226562 -0.128906 0.1875 -0.203125 C 0.144531 -0.273438 0.125 -0.359375 0.125 -0.453125 C 0.125 -0.535156 0.140625 -0.609375 0.171875 -0.671875 C 0.210938 -0.742188 0.257812 -0.800781 0.3125 -0.84375 C 0.375 -0.894531 0.4375 -0.941406 0.5 -0.984375 C 0.4375 -1.046875 0.382812 -1.109375 0.34375 -1.171875 C 0.300781 -1.242188 0.28125 -1.316406 0.28125 -1.390625 C 0.28125 -1.472656 0.300781 -1.539062 0.34375 -1.59375 C 0.382812 -1.65625 0.4375 -1.703125 0.5 -1.734375 C 0.570312 -1.765625 0.644531 -1.78125 0.71875 -1.78125 C 0.789062 -1.78125 0.859375 -1.765625 0.921875 -1.734375 C 0.984375 -1.703125 1.03125 -1.660156 1.0625 -1.609375 C 1.101562 -1.566406 1.125 -1.515625 1.125 -1.453125 C 1.125 -1.429688 1.113281 -1.410156 1.09375 -1.390625 C 1.070312 -1.367188 1.046875 -1.359375 1.015625 -1.359375 C 0.992188 -1.359375 0.972656 -1.363281 0.953125 -1.375 C 0.941406 -1.394531 0.9375 -1.414062 0.9375 -1.4375 C 0.925781 -1.476562 0.898438 -1.515625 0.859375 -1.546875 C 0.828125 -1.585938 0.78125 -1.609375 0.71875 -1.609375 C 0.65625 -1.609375 0.597656 -1.585938 0.546875 -1.546875 C 0.503906 -1.503906 0.484375 -1.453125 0.484375 -1.390625 C 0.484375 -1.335938 0.503906 -1.28125 0.546875 -1.21875 C 0.585938 -1.164062 0.632812 -1.113281 0.6875 -1.0625 L 1.140625 -0.515625 C 1.171875 -0.566406 1.195312 -0.617188 1.21875 -0.671875 C 1.25 -0.722656 1.273438 -0.769531 1.296875 -0.8125 C 1.304688 -0.84375 1.316406 -0.859375 1.328125 -0.859375 C 1.335938 -0.867188 1.351562 -0.875 1.375 -0.875 C 1.40625 -0.875 1.425781 -0.863281 1.4375 -0.84375 C 1.457031 -0.820312 1.46875 -0.800781 1.46875 -0.78125 C 1.46875 -0.75 1.457031 -0.707031 1.4375 -0.65625 C 1.414062 -0.601562 1.390625 -0.550781 1.359375 -0.5 C 1.328125 -0.457031 1.296875 -0.414062 1.265625 -0.375 L 1.46875 -0.140625 C 1.476562 -0.117188 1.484375 -0.0976562 1.484375 -0.078125 Z M 1.015625 -0.359375 L 0.609375 -0.84375 C 0.554688 -0.8125 0.503906 -0.78125 0.453125 -0.75 C 0.410156 -0.71875 0.375 -0.675781 0.34375 -0.625 C 0.320312 -0.582031 0.3125 -0.53125 0.3125 -0.46875 C 0.3125 -0.414062 0.320312 -0.363281 0.34375 -0.3125 C 0.375 -0.269531 0.410156 -0.234375 0.453125 -0.203125 C 0.503906 -0.171875 0.5625 -0.15625 0.625 -0.15625 C 0.707031 -0.15625 0.78125 -0.175781 0.84375 -0.21875 C 0.90625 -0.257812 0.960938 -0.304688 1.015625 -0.359375 Z M 1.015625 -0.359375 "/></g></g></g><g fill="#ffffff" fill-opacity="1"><g transform="translate(15.215462, 2.910075)"><g/></g></g><g fill="#ffffff" fill-opacity="1"><g transform="translate(16.710638, 2.910075)"><g><path d="M 0.109375 -0.4375 L 0.109375 -0.8125 C 0.109375 -0.90625 0.125 -0.984375 0.15625 -1.046875 C 0.1875 -1.117188 0.234375 -1.175781 0.296875 -1.21875 C 0.367188 -1.257812 0.457031 -1.28125 0.5625 -1.28125 C 0.59375 -1.28125 0.625 -1.273438 0.65625 -1.265625 C 0.695312 -1.265625 0.734375 -1.257812 0.765625 -1.25 C 0.804688 -1.238281 0.835938 -1.222656 0.859375 -1.203125 C 0.890625 -1.179688 0.90625 -1.15625 0.90625 -1.125 C 0.90625 -1.101562 0.894531 -1.082031 0.875 -1.0625 C 0.863281 -1.050781 0.847656 -1.046875 0.828125 -1.046875 C 0.816406 -1.046875 0.800781 -1.046875 0.78125 -1.046875 C 0.75 -1.054688 0.71875 -1.066406 0.6875 -1.078125 C 0.65625 -1.097656 0.617188 -1.109375 0.578125 -1.109375 C 0.484375 -1.109375 0.414062 -1.082031 0.375 -1.03125 C 0.332031 -0.976562 0.3125 -0.90625 0.3125 -0.8125 L 0.3125 -0.4375 C 0.3125 -0.34375 0.332031 -0.269531 0.375 -0.21875 C 0.414062 -0.175781 0.484375 -0.15625 0.578125 -0.15625 C 0.617188 -0.15625 0.65625 -0.160156 0.6875 -0.171875 C 0.71875 -0.179688 0.75 -0.191406 0.78125 -0.203125 C 0.800781 -0.210938 0.816406 -0.21875 0.828125 -0.21875 C 0.847656 -0.21875 0.863281 -0.207031 0.875 -0.1875 C 0.894531 -0.175781 0.90625 -0.15625 0.90625 -0.125 C 0.90625 -0.101562 0.890625 -0.0820312 0.859375 -0.0625 C 0.835938 -0.0390625 0.804688 -0.0234375 0.765625 -0.015625 C 0.734375 -0.00390625 0.695312 0 0.65625 0 C 0.625 0.0078125 0.59375 0.015625 0.5625 0.015625 C 0.457031 0.015625 0.367188 -0.00390625 0.296875 -0.046875 C 0.234375 -0.0859375 0.1875 -0.140625 0.15625 -0.203125 C 0.125 -0.273438 0.109375 -0.351562 0.109375 -0.4375 Z M 0.109375 -0.4375 "/></g></g></g><g fill="#ffffff" fill-opacity="1"><g transform="translate(18.437482, 2.910075)"><g><path d="M 0.578125 0.015625 C 0.472656 0.015625 0.382812 0 0.3125 -0.03125 C 0.25 -0.0703125 0.195312 -0.125 0.15625 -0.1875 C 0.125 -0.257812 0.109375 -0.335938 0.109375 -0.421875 L 0.109375 -0.84375 C 0.109375 -0.925781 0.125 -1 0.15625 -1.0625 C 0.195312 -1.132812 0.25 -1.1875 0.3125 -1.21875 C 0.382812 -1.257812 0.472656 -1.28125 0.578125 -1.28125 C 0.679688 -1.28125 0.765625 -1.257812 0.828125 -1.21875 C 0.898438 -1.1875 0.953125 -1.132812 0.984375 -1.0625 C 1.023438 -1 1.046875 -0.925781 1.046875 -0.84375 L 1.046875 -0.421875 C 1.046875 -0.335938 1.023438 -0.257812 0.984375 -0.1875 C 0.953125 -0.125 0.898438 -0.0703125 0.828125 -0.03125 C 0.765625 0 0.679688 0.015625 0.578125 0.015625 Z M 0.578125 -0.15625 C 0.671875 -0.15625 0.738281 -0.175781 0.78125 -0.21875 C 0.832031 -0.269531 0.859375 -0.335938 0.859375 -0.421875 L 0.859375 -0.84375 C 0.859375 -0.925781 0.832031 -0.988281 0.78125 -1.03125 C 0.738281 -1.082031 0.671875 -1.109375 0.578125 -1.109375 C 0.484375 -1.109375 0.414062 -1.082031 0.375 -1.03125 C 0.332031 -0.988281 0.3125 -0.925781 0.3125 -0.84375 L 0.3125 -0.421875 C 0.3125 -0.335938 0.332031 -0.269531 0.375 -0.21875 C 0.414062 -0.175781 0.484375 -0.15625 0.578125 -0.15625 Z M 0.578125 -0.15625 "/></g></g></g><g fill="#ffffff" fill-opacity="1"><g transform="translate(20.34119, 2.910075)"><g><path d="M 0.1875 -0.078125 L 0.1875 -1.34375 C 0.1875 -1.5 0.226562 -1.613281 0.3125 -1.6875 C 0.394531 -1.769531 0.5 -1.8125 0.625 -1.8125 C 0.632812 -1.8125 0.648438 -1.8125 0.671875 -1.8125 C 0.691406 -1.8125 0.71875 -1.804688 0.75 -1.796875 C 0.78125 -1.796875 0.800781 -1.785156 0.8125 -1.765625 C 0.832031 -1.753906 0.84375 -1.734375 0.84375 -1.703125 C 0.84375 -1.671875 0.832031 -1.644531 0.8125 -1.625 C 0.800781 -1.613281 0.78125 -1.609375 0.75 -1.609375 C 0.726562 -1.609375 0.707031 -1.609375 0.6875 -1.609375 C 0.664062 -1.617188 0.640625 -1.625 0.609375 -1.625 C 0.535156 -1.625 0.476562 -1.597656 0.4375 -1.546875 C 0.394531 -1.492188 0.375 -1.429688 0.375 -1.359375 L 0.375 -1.203125 L 0.640625 -1.203125 C 0.660156 -1.203125 0.679688 -1.191406 0.703125 -1.171875 C 0.722656 -1.160156 0.734375 -1.140625 0.734375 -1.109375 C 0.734375 -1.085938 0.722656 -1.066406 0.703125 -1.046875 C 0.679688 -1.023438 0.660156 -1.015625 0.640625 -1.015625 L 0.375 -1.015625 L 0.375 -0.078125 C 0.375 -0.0546875 0.363281 -0.0351562 0.34375 -0.015625 C 0.332031 0.00390625 0.3125 0.015625 0.28125 0.015625 C 0.25 0.015625 0.222656 0.00390625 0.203125 -0.015625 C 0.191406 -0.0351562 0.1875 -0.0546875 0.1875 -0.078125 Z M 0.1875 -0.078125 "/></g></g></g><g fill="#ffffff" fill-opacity="1"><g transform="translate(21.908606, 2.910075)"><g><path d="M 0.1875 -0.078125 L 0.1875 -1.34375 C 0.1875 -1.5 0.226562 -1.613281 0.3125 -1.6875 C 0.394531 -1.769531 0.5 -1.8125 0.625 -1.8125 C 0.632812 -1.8125 0.648438 -1.8125 0.671875 -1.8125 C 0.691406 -1.8125 0.71875 -1.804688 0.75 -1.796875 C 0.78125 -1.796875 0.800781 -1.785156 0.8125 -1.765625 C 0.832031 -1.753906 0.84375 -1.734375 0.84375 -1.703125 C 0.84375 -1.671875 0.832031 -1.644531 0.8125 -1.625 C 0.800781 -1.613281 0.78125 -1.609375 0.75 -1.609375 C 0.726562 -1.609375 0.707031 -1.609375 0.6875 -1.609375 C 0.664062 -1.617188 0.640625 -1.625 0.609375 -1.625 C 0.535156 -1.625 0.476562 -1.597656 0.4375 -1.546875 C 0.394531 -1.492188 0.375 -1.429688 0.375 -1.359375 L 0.375 -1.203125 L 0.640625 -1.203125 C 0.660156 -1.203125 0.679688 -1.191406 0.703125 -1.171875 C 0.722656 -1.160156 0.734375 -1.140625 0.734375 -1.109375 C 0.734375 -1.085938 0.722656 -1.066406 0.703125 -1.046875 C 0.679688 -1.023438 0.660156 -1.015625 0.640625 -1.015625 L 0.375 -1.015625 L 0.375 -0.078125 C 0.375 -0.0546875 0.363281 -0.0351562 0.34375 -0.015625 C 0.332031 0.00390625 0.3125 0.015625 0.28125 0.015625 C 0.25 0.015625 0.222656 0.00390625 0.203125 -0.015625 C 0.191406 -0.0351562 0.1875 -0.0546875 0.1875 -0.078125 Z M 0.1875 -0.078125 "/></g></g></g><g fill="#ffffff" fill-opacity="1"><g transform="translate(23.476023, 2.910075)"><g><path d="M 0.578125 -0.15625 C 0.628906 -0.15625 0.675781 -0.160156 0.71875 -0.171875 C 0.757812 -0.179688 0.800781 -0.195312 0.84375 -0.21875 C 0.851562 -0.226562 0.863281 -0.234375 0.875 -0.234375 C 0.894531 -0.234375 0.914062 -0.222656 0.9375 -0.203125 C 0.957031 -0.179688 0.96875 -0.160156 0.96875 -0.140625 C 0.96875 -0.109375 0.953125 -0.0820312 0.921875 -0.0625 C 0.890625 -0.0390625 0.851562 -0.0234375 0.8125 -0.015625 C 0.769531 -0.00390625 0.722656 0 0.671875 0 C 0.628906 0.0078125 0.59375 0.015625 0.5625 0.015625 C 0.414062 0.015625 0.300781 -0.0195312 0.21875 -0.09375 C 0.144531 -0.175781 0.109375 -0.273438 0.109375 -0.390625 L 0.109375 -0.859375 C 0.109375 -0.984375 0.144531 -1.082031 0.21875 -1.15625 C 0.300781 -1.238281 0.414062 -1.28125 0.5625 -1.28125 C 0.707031 -1.28125 0.8125 -1.242188 0.875 -1.171875 C 0.945312 -1.097656 0.984375 -1 0.984375 -0.875 C 0.984375 -0.757812 0.945312 -0.664062 0.875 -0.59375 C 0.8125 -0.53125 0.707031 -0.5 0.5625 -0.5 C 0.519531 -0.5 0.476562 -0.5 0.4375 -0.5 C 0.394531 -0.507812 0.351562 -0.519531 0.3125 -0.53125 L 0.3125 -0.375 C 0.3125 -0.3125 0.332031 -0.257812 0.375 -0.21875 C 0.414062 -0.175781 0.484375 -0.15625 0.578125 -0.15625 Z M 0.796875 -0.875 C 0.796875 -0.957031 0.773438 -1.015625 0.734375 -1.046875 C 0.691406 -1.085938 0.632812 -1.109375 0.5625 -1.109375 C 0.476562 -1.109375 0.414062 -1.085938 0.375 -1.046875 C 0.332031 -1.003906 0.3125 -0.945312 0.3125 -0.875 L 0.3125 -0.6875 C 0.351562 -0.6875 0.398438 -0.679688 0.453125 -0.671875 C 0.503906 -0.671875 0.539062 -0.671875 0.5625 -0.671875 C 0.632812 -0.671875 0.6875 -0.679688 0.71875 -0.703125 C 0.75 -0.722656 0.769531 -0.75 0.78125 -0.78125 C 0.789062 -0.8125 0.796875 -0.84375 0.796875 -0.875 Z M 0.796875 -0.875 "/></g></g></g></g></g><g clip-path="url(#37d004d103)"><g clip-path="url(#383478a751)"><g clip-path="url(#e8a6fb72b0)"><g transform="matrix(1, 0, 0, 1, 44, 5)"><g clip-path="url(#4e49a952b9)"><g clip-path="url(#b582b52a23)"><g clip-path="url(#386583f40e)"><g clip-path="url(#30efe4995a)"><path fill="#000000" d="M -0.324219 1.765625 L 1.882812 0.328125 L 3.324219 2.539062 L 1.113281 3.976562 Z M -0.324219 1.765625 " fill-opacity="1" fill-rule="nonzero"/></g></g></g></g></g></g></g></g><g clip-path="url(#43a0eed7ea)"><g clip-path="url(#903b7c0575)"><g clip-path="url(#4ef6838559)"><g transform="matrix(1, 0, 0, 1, 45, 8)"><g clip-path="url(#2feaee232d)"><g clip-path="url(#67d2f3fe9a)"><g clip-path="url(#5482d4e628)"><g clip-path="url(#cab812e9ed)"><path fill="#000000" d="M -0.0585938 0.332031 L 0.585938 -0.0898438 L 1.007812 0.558594 L 0.363281 0.976562 Z M -0.0585938 0.332031 " fill-opacity="1" fill-rule="nonzero"/></g></g></g></g></g></g></g></g></g></g></svg>